<svg width="33" height="32" viewBox="0 0 33 32" fill="none" xmlns="http://www.w3.org/2000/svg">
<g clip-path="url(#clip0_10_1359)">
<path fill-rule="evenodd" clip-rule="evenodd" d="M16.3181 10.5483C16.4308 10.4839 16.5692 10.4839 16.6819 10.5483L21.8153 13.4816C21.9295 13.5469 22 13.6684 22 13.8V14.3279C22 17.6517 19.7966 20.5728 16.6007 21.4859C16.5349 21.5047 16.4651 21.5047 16.3993 21.4859C13.2034 20.5728 11 17.6517 11 14.3279V13.8C11 13.6684 11.0705 13.5469 11.1847 13.4816L16.3181 10.5483ZM16.186 18.3545L19.353 14.3957L18.7804 13.9376L16.0807 17.3122L14.1681 15.7183L13.6986 16.2817L16.186 18.3545Z" fill="#16884A"/>
<circle cx="16.5" cy="16" r="8.75" stroke="#16884A" stroke-width="0.5"/>
<g clip-path="url(#clip1_10_1359)">
<path d="M6.61745 13.9172C6.55978 14.1695 6.47904 14.3989 6.36371 14.6283C6.24837 14.8577 6.1215 15.0412 5.96003 15.1903C5.8793 15.2591 5.79856 15.2935 5.71783 15.2935C5.62556 15.2935 5.55636 15.2706 5.48716 15.2247C5.42949 15.1788 5.38336 15.11 5.37182 15.0412C5.36029 14.9724 5.39489 14.8921 5.46409 14.8118C5.60249 14.6742 5.71783 14.5136 5.79856 14.3415C5.8793 14.1695 5.96003 13.9745 6.00617 13.7681C6.07537 13.4698 6.07537 13.2519 6.00617 13.0913C5.9485 12.9422 5.83317 12.839 5.6717 12.8046C5.54483 12.7816 5.42949 12.7931 5.33722 12.8734C5.24496 12.9537 5.14115 13.1028 5.03735 13.3207L4.76055 13.9057C4.43761 14.5709 3.99933 14.8347 3.42266 14.6971C3.18045 14.6398 2.97285 14.5251 2.82291 14.353C2.67298 14.181 2.56918 13.963 2.52304 13.7107C2.47691 13.4584 2.48844 13.1831 2.55764 12.8734C2.61531 12.644 2.68451 12.449 2.78831 12.254C2.89211 12.0705 3.01898 11.9099 3.16892 11.7723C3.23812 11.715 3.30732 11.6805 3.38806 11.6805C3.46879 11.6805 3.53799 11.715 3.59566 11.7608C3.65333 11.8067 3.68793 11.8755 3.68793 11.9558C3.68793 12.0361 3.6764 12.1164 3.59566 12.1967C3.48032 12.3229 3.39959 12.449 3.33039 12.5867C3.26119 12.7243 3.21505 12.8734 3.16892 13.034C3.11125 13.2863 3.11125 13.5042 3.19199 13.6763C3.27272 13.8483 3.38806 13.9516 3.56106 13.9974C3.69946 14.0319 3.8148 14.0089 3.9186 13.9401C4.0224 13.8713 4.11467 13.7336 4.21847 13.5272L4.49528 12.9537C4.65675 12.5981 4.85282 12.3573 5.06042 12.2196C5.26802 12.082 5.51023 12.0361 5.79856 12.1049C6.04077 12.1623 6.22531 12.277 6.37524 12.4376C6.52518 12.6096 6.61745 12.8161 6.66358 13.0684C6.70971 13.3093 6.68665 13.596 6.61745 13.9172Z" fill="#16884A"/>
<path d="M7.88613 10.8777C7.72466 11.13 7.55166 11.3135 7.33252 11.4282C7.11338 11.5429 6.88271 11.6003 6.62897 11.5888C6.38677 11.5659 6.13303 11.4856 5.8793 11.325C5.62556 11.1759 5.42949 10.9809 5.30262 10.7744C5.17575 10.568 5.11808 10.3271 5.12962 10.0863C5.15268 9.83392 5.23342 9.59305 5.38335 9.34071C5.53329 9.08838 5.71783 8.90486 5.93696 8.79016C6.1561 8.67546 6.38677 8.61811 6.62897 8.62958C6.88271 8.65252 7.13645 8.73281 7.39019 8.89339C7.64393 9.0425 7.84 9.23748 7.95533 9.45541C8.0822 9.67334 8.13987 9.90274 8.12833 10.1436C8.1168 10.3845 8.03607 10.6253 7.88613 10.8777ZM7.41325 10.5909C7.52859 10.4074 7.55166 10.2239 7.49399 10.0289C7.42479 9.83392 7.26332 9.66187 7.00958 9.50129C6.74431 9.34071 6.51364 9.27189 6.31757 9.3063C6.1215 9.34071 5.96003 9.44394 5.85623 9.62746C5.74089 9.81098 5.71783 9.99449 5.77549 10.1895C5.83316 10.3845 5.99463 10.5565 6.2599 10.7171C6.51364 10.8777 6.74431 10.9465 6.95191 10.9121C7.14798 10.8777 7.30945 10.7744 7.41325 10.5909Z" fill="#16884A"/>
<path d="M10.2044 8.26252C10.0429 8.40016 9.86991 8.48045 9.69691 8.51486C9.51237 8.54927 9.33937 8.5378 9.1779 8.46898L9.25864 8.56074C9.42011 8.74425 9.40857 8.9163 9.22404 9.06541C9.0395 9.22599 8.87803 9.20305 8.71656 9.01953L6.50212 6.41588C6.34065 6.23236 6.36372 6.06031 6.53672 5.9112C6.72126 5.7621 6.89426 5.77357 7.0442 5.95708L7.92075 6.9779C7.89768 6.81732 7.90921 6.64527 7.97841 6.4847C8.04762 6.31265 8.15142 6.16354 8.30135 6.03737C8.49742 5.87679 8.70503 5.78504 8.92416 5.75063C9.1433 5.72769 9.36244 5.7621 9.58158 5.85385C9.80071 5.94561 9.99678 6.11766 10.1929 6.35853C10.3889 6.58792 10.5158 6.81732 10.585 7.04672C10.6427 7.27611 10.6427 7.50551 10.585 7.71197C10.5158 7.91843 10.3889 8.11341 10.2044 8.26252ZM9.69691 7.97577C9.85838 7.83814 9.93911 7.66609 9.93911 7.4711C9.93911 7.26464 9.83531 7.04672 9.63924 6.81732C9.44317 6.58792 9.2471 6.45029 9.05103 6.42735C8.85496 6.39294 8.67043 6.43882 8.50896 6.58792C8.34749 6.71409 8.25522 6.88614 8.25522 7.0926C8.25522 7.28758 8.34749 7.50551 8.55509 7.73491C8.75116 7.9643 8.94723 8.10194 9.1433 8.13635C9.35091 8.17076 9.52391 8.11341 9.69691 7.97577Z" fill="#16884A"/>
<path d="M12.4419 6.90909C12.2573 6.98938 12.0728 7.02379 11.8883 7.01232C11.7153 7.00085 11.5538 6.9435 11.4269 6.86321C11.2885 6.77145 11.1963 6.65675 11.127 6.49618C11.0348 6.30119 11.0232 6.12914 11.0809 5.98003C11.127 5.81946 11.2655 5.68182 11.4615 5.53271C11.6691 5.39507 11.9575 5.24596 12.3381 5.08539L12.5226 5.0051L12.4765 4.8904C12.3957 4.71835 12.3035 4.61512 12.1997 4.56924C12.0843 4.52336 11.9344 4.53483 11.7499 4.61512C11.6461 4.661 11.5423 4.71835 11.4385 4.78717C11.3347 4.85599 11.2193 4.95922 11.1155 5.07392C11.0463 5.14273 10.9771 5.17714 10.9079 5.17714C10.8387 5.16567 10.781 5.13126 10.7349 5.07392C10.6888 5.01657 10.6542 4.95922 10.6542 4.87893C10.6542 4.79864 10.6888 4.72982 10.758 4.661C10.8964 4.52336 11.0348 4.40867 11.1732 4.31691C11.3116 4.22515 11.45 4.15633 11.5653 4.09898C11.9459 3.9384 12.2573 3.91546 12.5226 4.00722C12.7763 4.09898 12.9839 4.33985 13.1454 4.70688L13.676 5.98003C13.7682 6.20943 13.7106 6.35854 13.5145 6.4503C13.2954 6.54205 13.1454 6.47324 13.0532 6.24384L12.9955 6.12914C12.9955 6.30119 12.9493 6.4503 12.8571 6.58793C12.7533 6.72557 12.6149 6.8288 12.4419 6.90909ZM12.3842 6.39295C12.5572 6.32413 12.6725 6.19796 12.7417 6.03738C12.8109 5.86533 12.7994 5.69329 12.7187 5.50977L12.6725 5.39507L12.4995 5.46389C12.1651 5.60153 11.9459 5.7277 11.8306 5.83092C11.7268 5.93415 11.7037 6.06032 11.7614 6.18649C11.8075 6.30119 11.8883 6.38148 12.0036 6.41589C12.1189 6.4503 12.2343 6.4503 12.3842 6.39295Z" fill="#16884A"/>
<path d="M14.7947 6.12915C14.5525 6.15209 14.4256 6.03739 14.4026 5.79653L14.2065 3.6402C14.1834 3.39933 14.2872 3.27316 14.5294 3.25022C14.7601 3.22728 14.887 3.34198 14.9101 3.58285L14.9216 3.70902C15.0023 3.53697 15.1177 3.4108 15.2791 3.30757C15.4291 3.20434 15.6136 3.14699 15.8212 3.13552C16.4786 3.07818 16.8477 3.43374 16.9169 4.19075L17.0438 5.5786C17.0668 5.81947 16.9515 5.9571 16.7208 5.96857C16.4786 5.98004 16.3402 5.86535 16.3171 5.62448L16.2018 4.28251C16.1787 4.06458 16.1211 3.91547 16.0403 3.82372C15.9481 3.73196 15.8212 3.69755 15.6482 3.70902C15.4406 3.73196 15.2791 3.81225 15.1638 3.94988C15.0485 4.08752 15.0023 4.27104 15.0254 4.48897L15.1407 5.73918C15.1523 5.96857 15.0369 6.10621 14.7947 6.12915Z" fill="#16884A"/>
<path d="M18.0241 6.04885C17.7934 5.9915 17.7011 5.85386 17.7588 5.61299L18.52 2.29821C18.5777 2.05734 18.7161 1.97705 18.9467 2.02293C19.1889 2.08028 19.2697 2.21792 19.2235 2.45879L18.9237 3.75488C19.0505 3.62871 19.2005 3.53695 19.3735 3.50254C19.5465 3.46813 19.731 3.46813 19.9271 3.50254C20.573 3.65165 20.8152 4.09897 20.6422 4.84451L20.3308 6.19795C20.2731 6.43882 20.1347 6.53058 19.904 6.47323C19.6618 6.41588 19.5811 6.27824 19.6272 6.03738L19.9271 4.71834C19.9732 4.50042 19.9732 4.33984 19.9156 4.22514C19.8579 4.11044 19.7426 4.03015 19.5695 3.99575C19.3619 3.94987 19.1889 3.97281 19.039 4.07603C18.8891 4.17926 18.7853 4.32837 18.7391 4.5463L18.4623 5.77357C18.4047 6.00297 18.2547 6.09473 18.0241 6.04885Z" fill="#16884A"/>
<path d="M21.6341 7.2761C21.4611 7.17287 21.3227 7.04671 21.2189 6.8976C21.1151 6.74849 21.069 6.59938 21.0574 6.4388C21.0459 6.27823 21.0805 6.12912 21.1728 5.98001C21.2766 5.79649 21.4034 5.68179 21.5649 5.63592C21.7148 5.59004 21.9109 5.60151 22.1531 5.67032C22.3953 5.75061 22.6837 5.88825 23.0297 6.09471L23.2027 6.19794L23.2603 6.09471C23.3526 5.93413 23.3872 5.79649 23.3641 5.67032C23.3295 5.55563 23.2373 5.4524 23.0527 5.34917C22.9605 5.29182 22.8451 5.24594 22.7183 5.20006C22.5914 5.15418 22.453 5.13124 22.3031 5.11977C22.1993 5.1083 22.1301 5.07389 22.0955 5.01654C22.0609 4.95919 22.0493 4.89038 22.0724 4.82156C22.0839 4.75274 22.1301 4.68392 22.1877 4.63804C22.2454 4.59216 22.3261 4.56922 22.4184 4.59216C22.6029 4.6151 22.7759 4.66098 22.9374 4.71833C23.0989 4.77568 23.2257 4.83303 23.3411 4.90185C23.6986 5.1083 23.9178 5.3377 23.987 5.60151C24.0677 5.86531 23.9985 6.16353 23.8024 6.50762L23.0989 7.70049C22.972 7.90694 22.8221 7.96429 22.626 7.84959C22.4299 7.7349 22.3953 7.57432 22.5222 7.35639L22.5914 7.25316C22.453 7.35639 22.3031 7.41374 22.1301 7.41374C21.9686 7.42521 21.8071 7.37933 21.6341 7.2761ZM22.0147 6.93201C22.1762 7.02377 22.3492 7.04671 22.5222 7.00083C22.6952 6.95495 22.8336 6.84025 22.9374 6.6682L23.0066 6.5535L22.8336 6.46174C22.5222 6.27823 22.2915 6.175 22.1416 6.15206C21.9917 6.12912 21.8763 6.175 21.8071 6.30117C21.7379 6.40439 21.7264 6.51909 21.761 6.63379C21.7956 6.74849 21.8763 6.85172 22.0147 6.93201Z" fill="#16884A"/>
<path d="M23.6639 8.65249C23.5025 8.48044 23.514 8.3084 23.6985 8.14782L25.3132 6.69115C25.4978 6.53057 25.6592 6.53057 25.8207 6.70262C25.9822 6.87467 25.9706 7.04671 25.7861 7.20729L25.6938 7.28758C25.8784 7.25317 26.0514 7.26464 26.2244 7.32199C26.3974 7.37934 26.5473 7.49404 26.6857 7.64315C27.1355 8.13635 27.0779 8.64102 26.5012 9.15716L25.4632 10.0862C25.2786 10.2468 25.1056 10.2468 24.9557 10.0748C24.7942 9.89123 24.8058 9.73066 24.9788 9.55861L25.9822 8.64102C26.1436 8.49191 26.2359 8.35428 26.2474 8.22811C26.2705 8.10194 26.2128 7.97577 26.0975 7.8496C25.9591 7.7005 25.7976 7.60874 25.6131 7.60874C25.4286 7.60874 25.2556 7.67756 25.0941 7.82666L24.1829 8.67543C23.9984 8.84748 23.8254 8.83601 23.6639 8.65249Z" fill="#16884A"/>
<path d="M25.1172 12.4834C25.0365 12.2999 24.9673 12.1049 24.9211 11.9099C24.875 11.7149 24.8635 11.5314 24.875 11.3594C24.875 11.2561 24.9096 11.1873 24.9673 11.1414C25.0249 11.0956 25.0941 11.0726 25.1633 11.0726C25.2325 11.0726 25.3017 11.0956 25.3479 11.1414C25.4056 11.1873 25.4286 11.2447 25.4286 11.325C25.4171 11.5085 25.4402 11.6805 25.4748 11.8296C25.5094 11.9787 25.5555 12.1049 25.6016 12.1967C25.8092 12.6669 26.1437 12.8046 26.5935 12.5981L26.951 12.4375C26.778 12.4261 26.605 12.3687 26.4551 12.254C26.3052 12.1393 26.1898 11.9902 26.0976 11.8067C25.9938 11.5773 25.9592 11.3479 25.9938 11.13C26.0284 10.912 26.1206 10.7171 26.2706 10.5335C26.4205 10.35 26.6281 10.2124 26.8818 10.0977C27.1356 9.98298 27.3893 9.9371 27.62 9.9371C27.8507 9.94857 28.0583 10.0174 28.2428 10.1321C28.4273 10.2468 28.5657 10.4303 28.6695 10.6597C28.7503 10.8432 28.7849 11.0267 28.7733 11.2217C28.7618 11.4052 28.6926 11.5658 28.5888 11.7035L28.7041 11.6576C28.8079 11.6117 28.9117 11.6002 28.9925 11.6346C29.0732 11.669 29.1424 11.7379 29.1885 11.8296C29.2808 12.0476 29.2231 12.2081 29.004 12.2999L26.9741 13.1945C26.5589 13.3781 26.1898 13.4125 25.8784 13.2863C25.5555 13.1716 25.3133 12.8963 25.1172 12.4834ZM26.6858 11.7723C26.778 11.9787 26.9164 12.1049 27.1125 12.1623C27.3086 12.2196 27.5277 12.1967 27.7699 12.082C28.0121 11.9673 28.1736 11.8296 28.2659 11.6461C28.3466 11.4626 28.3466 11.2791 28.2543 11.0726C28.1621 10.8662 28.0237 10.74 27.8276 10.6826C27.6315 10.6253 27.4239 10.6482 27.1817 10.7629C26.9395 10.8662 26.778 11.0153 26.6858 11.1988C26.5935 11.3708 26.5935 11.5658 26.6858 11.7723Z" fill="#16884A"/>
<path d="M29.0272 15.3394V15.3165L28.5543 14.743L28.9349 14.72L29.4308 15.3279L29.4539 15.7064L27.0319 15.8785L27.0088 15.5L29.0272 15.3394Z" fill="#16884A"/>
<path d="M28.3005 16.4864C29.1079 16.5667 29.5461 16.9452 29.4885 17.5072C29.4308 18.0692 28.9233 18.356 28.116 18.2757C27.3086 18.1954 26.8704 17.8169 26.928 17.2549C26.9857 16.7043 27.4932 16.4176 28.3005 16.4864ZM28.1621 17.9087C28.7734 17.966 29.1194 17.8169 29.154 17.4843C29.1886 17.1631 28.8657 16.9337 28.2544 16.8764C27.6316 16.819 27.2856 16.9681 27.251 17.3008C27.2279 17.6334 27.5508 17.8398 28.1621 17.9087Z" fill="#16884A"/>
<path d="M28.0237 18.7689C28.7964 18.9983 29.1425 19.4571 28.981 19.9961C28.8195 20.5352 28.2659 20.7187 27.5047 20.4779C26.7319 20.2485 26.3859 19.8012 26.5474 19.2621C26.7089 18.7115 27.251 18.5395 28.0237 18.7689ZM27.62 20.1108C28.2082 20.2829 28.5773 20.2026 28.6696 19.8929C28.7618 19.5832 28.4966 19.308 27.9199 19.1244C27.3317 18.9524 26.9626 19.0327 26.8588 19.3424C26.7665 19.6635 27.0203 19.9388 27.62 20.1108Z" fill="#16884A"/>
<path d="M25.2903 21.969C25.4517 21.6937 25.7747 21.6249 26.0746 21.7969C26.3744 21.969 26.4782 22.2787 26.3283 22.5539C26.1668 22.8292 25.8554 22.898 25.544 22.726C25.2326 22.5539 25.1288 22.2443 25.2903 21.969ZM25.6939 22.4622C25.8785 22.5654 26.0284 22.5539 26.0976 22.4278C26.1668 22.3131 26.0976 22.164 25.9246 22.0607C25.7401 21.9575 25.5901 21.969 25.5209 22.0952C25.4517 22.2213 25.5209 22.3704 25.6939 22.4622ZM26.2014 20.4779L26.8473 21.9002L27.4586 23.1733L27.274 23.4945L26.6166 22.0493L26.0169 20.7991L26.2014 20.4779ZM27.1587 21.384C27.3086 21.1087 27.6316 21.0399 27.943 21.2234C28.2544 21.3955 28.3582 21.7052 28.1967 21.9805C28.0353 22.2557 27.7238 22.3245 27.4124 22.1525C27.101 21.969 26.9972 21.6593 27.1587 21.384ZM27.5624 21.8772C27.7469 21.9805 27.8968 21.969 27.9661 21.8428C28.0353 21.7281 27.9661 21.579 27.793 21.4873C27.62 21.384 27.4586 21.3955 27.3894 21.5217C27.3202 21.6364 27.3894 21.774 27.5624 21.8772Z" fill="#16884A"/>
<path d="M24.5982 23.9188C24.4137 23.7697 24.1484 23.8156 23.9178 24.045C23.6986 24.2515 23.641 24.5153 23.7909 24.6758C23.9178 24.8135 24.1023 24.7905 24.3906 24.63L24.6674 24.4694C25.0596 24.24 25.3479 24.2629 25.5901 24.5153C25.89 24.8364 25.8323 25.2837 25.4402 25.6393C25.0826 25.9719 24.6213 26.0178 24.3214 25.7311L24.5867 25.4787C24.7712 25.6164 25.0019 25.582 25.2095 25.387C25.4287 25.1805 25.4748 24.9397 25.3249 24.7791C25.2095 24.6529 25.0365 24.6644 24.7597 24.825L24.5175 24.9626C24.0792 25.2149 23.7794 25.2149 23.5372 24.9511C23.2142 24.6185 23.2834 24.1597 23.6986 23.7583C24.0908 23.3912 24.5521 23.3453 24.8635 23.6436L24.5982 23.9188Z" fill="#16884A"/>
<path d="M21.9686 25.9031L22.7644 25.4214L22.626 24.7561L22.9605 24.5612L23.468 27.0731L23.1219 27.2795L21.1151 25.6623L21.4611 25.4558L21.9686 25.9031ZM22.8451 25.7426L22.2223 26.1211L23.0527 26.8092L23.0758 26.7978L22.8451 25.7426Z" fill="#16884A"/>
<path d="M20.85 25.754L21.6689 28.0251L20.2387 28.5412L20.1234 28.22L21.196 27.8301L20.9422 27.1304L19.9619 27.486L19.8466 27.1763L20.8269 26.8207L20.4809 25.8802L20.85 25.754Z" fill="#16884A"/>
<path d="M17.5743 26.6028L19.1083 26.339L19.5235 28.7362L17.9895 28.9885L17.9319 28.6559L19.0852 28.4609L18.9699 27.7842L17.8742 27.9677L17.8165 27.6465L18.9122 27.463L18.7854 26.7404L17.632 26.9354L17.5743 26.6028Z" fill="#16884A"/>
<path d="M17.2168 27.3942V27.7498H16.1096V27.3942H17.2168Z" fill="#16884A"/>
<path d="M15.3369 27.1877C15.3485 26.9583 15.1408 26.7748 14.8294 26.7175C14.5296 26.6601 14.2874 26.7863 14.2412 26.9927C14.2066 27.1763 14.3335 27.3139 14.6334 27.4401L14.9332 27.5662C15.3485 27.7383 15.5099 27.9792 15.4523 28.3347C15.3831 28.7591 14.9794 28.9885 14.4604 28.8967C13.976 28.8165 13.6646 28.4724 13.7107 28.0594L14.0798 28.1168C14.0798 28.3462 14.2412 28.5182 14.5296 28.5641C14.8294 28.61 15.0486 28.5068 15.0832 28.2888C15.1178 28.1168 15.0024 28.0021 14.7026 27.8759L14.4488 27.7612C13.976 27.5662 13.803 27.3254 13.8722 26.9698C13.9529 26.511 14.3566 26.2931 14.9332 26.3848C15.4638 26.4766 15.7752 26.8092 15.7291 27.2451L15.3369 27.1877Z" fill="#16884A"/>
<path d="M12.2112 25.6508L13.6529 26.1899L12.7879 28.4494L11.3462 27.8989L11.4731 27.5777L12.5687 27.9906L12.8109 27.3483L11.7845 26.9583L11.8998 26.6601L12.9378 27.0501L13.1916 26.3734L12.0959 25.9719L12.2112 25.6508Z" fill="#16884A"/>
<path d="M11.277 26.5569C10.8503 27.2222 10.2275 27.3942 9.66231 27.0272C9.2125 26.7404 9.05103 26.2243 9.27017 25.777L9.59311 25.9834C9.48931 26.2702 9.59311 26.5684 9.85838 26.7404C10.2275 26.9813 10.6542 26.8322 10.9656 26.3505C11.277 25.8802 11.2424 25.4329 10.8733 25.192C10.5965 25.02 10.2967 25.0314 10.0891 25.2264L9.76611 25.02C10.0891 24.6529 10.5965 24.607 11.0579 24.8938C11.623 25.2608 11.7153 25.9031 11.277 26.5569Z" fill="#16884A"/>
<path d="M9.01656 24.5267C9.2703 24.2973 9.28183 23.9762 9.01656 23.6894C8.75129 23.4027 8.42835 23.4142 8.17461 23.6436L7.04432 24.7102L6.77905 24.435L7.94394 23.3453C8.32455 22.9898 8.85509 23.0012 9.28183 23.4486C9.69704 23.8959 9.6855 24.412 9.3049 24.7791L8.14001 25.8687L7.88627 25.5934L9.01656 24.5267Z" fill="#16884A"/>
<path d="M8.08228 22.1181L8.27835 22.4392L6.20231 23.7239L5.6833 22.9095C5.42956 22.4966 5.5103 22.0722 5.89091 21.8313C6.16771 21.6593 6.49065 21.6708 6.73285 21.8657L7.28646 20.8793L7.51713 21.2464L6.98659 22.1525L7.27493 22.5998L8.08228 22.1181ZM7.02119 22.7833L6.73285 22.3245C6.58292 22.0722 6.35225 22.0148 6.12158 22.164C5.90244 22.3016 5.8563 22.5425 6.00624 22.7833L6.29458 23.2307L7.02119 22.7833Z" fill="#16884A"/>
<path d="M6.66364 19.1818L7.20572 20.627L4.92208 21.4758L4.38 20.0306L4.70294 19.9159L5.11815 21.0055L5.76403 20.7646L5.37189 19.7323L5.68329 19.6176L6.07543 20.6499L6.75591 20.3976L6.34071 19.308L6.66364 19.1818Z" fill="#16884A"/>
<path d="M4.01092 18.3445C3.89559 17.6333 4.27619 17.1516 5.02587 17.0369C5.79862 16.9222 6.3061 17.2663 6.4099 17.9774L6.5483 18.8377L4.14932 19.2047L4.01092 18.3445ZM6.15616 18.5165L6.08696 18.0577C6.00622 17.5531 5.64868 17.3122 5.09507 17.404C4.553 17.4842 4.27619 17.8283 4.35693 18.333L4.42613 18.7803L6.15616 18.5165Z" fill="#16884A"/>
</g>
</g>
<path d="M16.5 31C8.21573 31 1.5 24.2843 1.5 16H-0.5C-0.5 25.3888 7.11116 33 16.5 33V31ZM31.5 16C31.5 24.2843 24.7843 31 16.5 31V33C25.8888 33 33.5 25.3888 33.5 16H31.5ZM16.5 1C24.7843 1 31.5 7.71573 31.5 16H33.5C33.5 6.61116 25.8888 -1 16.5 -1V1ZM16.5 -1C7.11116 -1 -0.5 6.61116 -0.5 16H1.5C1.5 7.71573 8.21573 1 16.5 1V-1Z" fill="#16884A"/>
<defs>
<clipPath id="clip0_10_1359">
<path d="M0.5 16C0.5 7.16344 7.66344 0 16.5 0C25.3366 0 32.5 7.16344 32.5 16C32.5 24.8366 25.3366 32 16.5 32C7.66344 32 0.5 24.8366 0.5 16Z" fill="white"/>
</clipPath>
<clipPath id="clip1_10_1359">
<rect width="27" height="27" fill="white" transform="translate(2.5 2)"/>
</clipPath>
</defs>
</svg>
