<svg width="20" height="20" viewBox="0 0 20 20" fill="none" xmlns="http://www.w3.org/2000/svg">
<path d="M12.6794 10.5351C12.6794 11.2455 12.3972 11.9268 11.8949 12.4291C11.3925 12.9315 10.7112 13.2137 10.0008 13.2137C9.29044 13.2137 8.60913 12.9315 8.1068 12.4291C7.60447 11.9268 7.32227 11.2455 7.32227 10.5351C7.32227 9.82471 7.60447 9.1434 8.1068 8.64107C8.60913 8.13874 9.29044 7.85654 10.0008 7.85654C10.7112 7.85654 11.3925 8.13874 11.8949 8.64107C12.3972 9.1434 12.6794 9.82471 12.6794 10.5351Z" fill="#0C85F2"/>
<path d="M3.5723 5.71369C3.00398 5.71369 2.45894 5.93945 2.05707 6.34132C1.65521 6.74318 1.42944 7.28822 1.42944 7.85655L1.42944 14.2851C1.42944 14.8534 1.65521 15.3985 2.05707 15.8003C2.45894 16.2022 3.00398 16.428 3.5723 16.428H16.4294C16.9978 16.428 17.5428 16.2022 17.9447 15.8003C18.3465 15.3985 18.5723 14.8534 18.5723 14.2851V7.85655C18.5723 7.28822 18.3465 6.74318 17.9447 6.34132C17.5428 5.93945 16.9978 5.71369 16.4294 5.71369H15.1737C14.6055 5.71357 14.0605 5.48772 13.6587 5.08583L12.7716 4.19869C12.3698 3.7968 11.8249 3.57095 11.2566 3.57083H8.74516C8.17688 3.57095 7.63193 3.7968 7.23016 4.19869L6.34301 5.08583C5.94124 5.48772 5.39629 5.71357 4.82801 5.71369H3.5723ZM4.10801 7.85655C3.96593 7.85655 3.82967 7.8001 3.72921 7.69964C3.62874 7.59917 3.5723 7.46291 3.5723 7.32083C3.5723 7.17875 3.62874 7.04249 3.72921 6.94202C3.82967 6.84156 3.96593 6.78512 4.10801 6.78512C4.25009 6.78512 4.38636 6.84156 4.48682 6.94202C4.58729 7.04249 4.64373 7.17875 4.64373 7.32083C4.64373 7.46291 4.58729 7.59917 4.48682 7.69964C4.38636 7.8001 4.25009 7.85655 4.10801 7.85655ZM13.7509 10.5351C13.7509 11.5297 13.3558 12.4835 12.6525 13.1868C11.9493 13.89 10.9954 14.2851 10.0009 14.2851C9.00631 14.2851 8.05248 13.89 7.34922 13.1868C6.64596 12.4835 6.25087 11.5297 6.25087 10.5351C6.25087 9.54056 6.64596 8.58673 7.34922 7.88347C8.05248 7.18021 9.00631 6.78512 10.0009 6.78512C10.9954 6.78512 11.9493 7.18021 12.6525 7.88347C13.3558 8.58673 13.7509 9.54056 13.7509 10.5351Z" fill="#0C85F2"/>
</svg>
