<svg width="20" height="20" viewBox="0 0 20 20" fill="none" xmlns="http://www.w3.org/2000/svg">
<path d="M13.1251 3.75001C13.1251 3.47374 13.2348 3.20879 13.4302 3.01344C13.6255 2.81809 13.8905 2.70834 14.1667 2.70834H16.2501C16.5263 2.70834 16.7913 2.81809 16.9867 3.01344C17.182 3.20879 17.2917 3.47374 17.2917 3.75001V16.25H17.8126C17.9507 16.25 18.0832 16.3049 18.1809 16.4026C18.2785 16.5002 18.3334 16.6327 18.3334 16.7708C18.3334 16.909 18.2785 17.0415 18.1809 17.1391C18.0832 17.2368 17.9507 17.2917 17.8126 17.2917H2.18758C2.04945 17.2917 1.91697 17.2368 1.8193 17.1391C1.72162 17.0415 1.66675 16.909 1.66675 16.7708C1.66675 16.6327 1.72162 16.5002 1.8193 16.4026C1.91697 16.3049 2.04945 16.25 2.18758 16.25H2.70841V13.125C2.70841 12.8487 2.81816 12.5838 3.01351 12.3884C3.20886 12.1931 3.47381 12.0833 3.75008 12.0833H5.83342C6.10968 12.0833 6.37463 12.1931 6.56998 12.3884C6.76533 12.5838 6.87508 12.8487 6.87508 13.125V16.25H7.91675V8.95834C7.91675 8.68208 8.02649 8.41712 8.22185 8.22177C8.4172 8.02642 8.68215 7.91668 8.95842 7.91668H11.0417C11.318 7.91668 11.583 8.02642 11.7783 8.22177C11.9737 8.41712 12.0834 8.68208 12.0834 8.95834V16.25H13.1251V3.75001ZM14.1667 16.25H16.2501V3.75001H14.1667V16.25ZM11.0417 16.25V8.95834H8.95842V16.25H11.0417ZM5.83342 16.25V13.125H3.75008V16.25H5.83342Z" fill="#0C85F2"/>
</svg>
