<svg
  width="28"
  height="28"
  viewBox="0 0 28 28"
  fill="none"
  xmlns="http://www.w3.org/2000/svg">
  <path
    d="M1.33022 7.18012C1.10558 7.40439 0.930716 7.67346 0.816999 7.96981C0.703283 8.26617 0.653269 8.58315 0.670215 8.90012V9.21012C0.689449 9.82258 0.849136 10.4224 1.13695 10.9634C1.42477 11.5044 1.83303 11.972 2.33022 12.3301C2.50022 12.6401 2.67022 12.6401 2.83022 12.8001C3.50851 13.1194 4.25059 13.2801 5.00022 13.2701H5.83022C6.6582 13.1699 7.42546 12.7845 8.00022 12.1801C8.85427 12.8615 9.90799 13.2443 11.0002 13.2701C12.0924 13.2443 13.1462 12.8615 14.0002 12.1801C14.8543 12.8615 15.908 13.2443 17.0002 13.2701C18.0924 13.2443 19.1462 12.8615 20.0002 12.1801C20.5976 12.7532 21.3538 13.133 22.1702 13.2701H23.0002C23.7498 13.2801 24.4919 13.1194 25.1702 12.8001C25.3302 12.6401 25.5002 12.6401 25.6702 12.4901C25.8402 12.3401 26.0002 12.3301 26.1702 12.1801C26.8911 11.3437 27.3009 10.2839 27.3302 9.18012V8.90012C27.3472 8.58315 27.2971 8.26617 27.1834 7.96981C27.0697 7.67346 26.8948 7.40439 26.6702 7.18012L26.3302 6.87012H1.67022L1.33022 7.18012Z"
    fill="#E5420E"
  />
  <path
    d="M23.1597 1.50992C22.6699 1.0316 22.0312 0.735191 21.3497 0.669922H6.46969C5.78818 0.735191 5.1495 1.0316 4.65969 1.50992L1.92969 5.50992H26.0597L23.1597 1.50992Z"
    fill="#E5420E"
  />
  <path
    d="M25.6695 16.5899V13.5899C25.4995 13.7499 25.3295 13.8999 25.1695 13.8999C24.5351 14.3427 23.7724 14.5641 22.9995 14.5299H22.1695C21.3379 14.4276 20.5692 14.0344 19.9995 13.4199C19.5979 13.7938 19.1257 14.0837 18.6105 14.2726C18.0954 14.4615 17.5476 14.5456 16.9995 14.5199C15.9051 14.4965 14.8497 14.1095 13.9995 13.4199C13.1494 14.1095 12.0939 14.4965 10.9995 14.5199C9.90515 14.4965 8.84968 14.1095 7.99954 13.4199C7.36466 13.9398 6.62417 14.3152 5.82954 14.5199H4.99954C4.24991 14.5299 3.50784 14.3692 2.82954 14.0499C2.70569 13.8897 2.52812 13.7796 2.32954 13.7399V24.5099C2.32439 24.7257 2.36496 24.9401 2.44857 25.1391C2.53219 25.3381 2.65695 25.5171 2.81468 25.6644C2.9724 25.8118 3.15951 25.9241 3.36372 25.994C3.56793 26.0638 3.78461 26.0897 3.99954 26.0699H9.82954V18.2599C9.82439 18.0441 9.86496 17.8297 9.94857 17.6307C10.0322 17.4318 10.157 17.2527 10.3147 17.1054C10.4724 16.9581 10.6595 16.8458 10.8637 16.7759C11.0679 16.706 11.2846 16.6801 11.4995 16.6999H16.4995C16.8532 16.6924 17.2012 16.7898 17.4995 16.9799C18.6083 15.9882 20.0245 15.4081 21.5103 15.3371C22.9962 15.2661 24.4613 15.7084 25.6595 16.5899H25.6695Z"
    fill="#E5420E"
  />
  <path
    opacity="0.7"
    d="M21.8301 16.3301C20.3722 16.3327 18.9748 16.913 17.9439 17.9439C16.913 18.9748 16.3327 20.3722 16.3301 21.8301C16.3301 22.9179 16.6526 23.9812 17.257 24.8857C17.8613 25.7902 18.7203 26.4951 19.7253 26.9114C20.7303 27.3277 21.8362 27.4366 22.9031 27.2244C23.97 27.0122 24.95 26.4884 25.7192 25.7192C26.4884 24.95 27.0122 23.97 27.2244 22.9031C27.4366 21.8362 27.3277 20.7303 26.9114 19.7253C26.4951 18.7203 25.7902 17.8613 24.8857 17.257C23.9812 16.6526 22.9179 16.3301 21.8301 16.3301ZM23.8901 22.6801H22.7001V23.9101C22.7001 24.1408 22.6084 24.3621 22.4453 24.5253C22.2821 24.6884 22.0608 24.7801 21.8301 24.7801C21.5993 24.7801 21.3781 24.6884 21.2149 24.5253C21.0517 24.3621 20.9601 24.1408 20.9601 23.9101V22.6801H19.7801C19.5493 22.6801 19.3281 22.5884 19.1649 22.4253C19.0017 22.2621 18.9101 22.0408 18.9101 21.8101C18.9101 21.5793 19.0017 21.3581 19.1649 21.1949C19.3281 21.0317 19.5493 20.9401 19.7801 20.9401H21.0001V19.8001C21.0001 19.5693 21.0917 19.3481 21.2549 19.1849C21.4181 19.0217 21.6393 18.9301 21.8701 18.9301C22.1008 18.9301 22.3221 19.0217 22.4853 19.1849C22.6484 19.3481 22.7401 19.5693 22.7401 19.8001V20.9401H23.9301C24.1608 20.9401 24.3821 21.0317 24.5453 21.1949C24.7084 21.3581 24.8001 21.5793 24.8001 21.8101C24.8001 22.0408 24.7084 22.2621 24.5453 22.4253C24.3821 22.5884 24.1608 22.6801 23.9301 22.6801H23.8901Z"
    fill="#E5420E"
  />
</svg>
