<svg width="32" height="32" viewBox="0 0 32 32" fill="none" xmlns="http://www.w3.org/2000/svg">
<path fill-rule="evenodd" clip-rule="evenodd" d="M22.6668 26.6669H28.0001C28.0001 23.7518 24.4001 21.3667 20.0001 21.3667C19.4668 21.3667 19.0668 21.3667 18.5334 21.4992C18.8001 21.6317 19.0668 21.7642 19.3334 21.8967C21.2001 23.0893 22.5334 24.6794 22.6668 26.6669Z" fill="#E69803"/>
<path opacity="0.7" fill-rule="evenodd" clip-rule="evenodd" d="M11.7333 5.73111C8.13325 5.73111 5.33325 8.64622 5.33325 12.0914C5.33325 15.5365 8.13325 18.4516 11.7333 18.4516C15.1999 18.4516 18.1333 15.669 18.1333 12.0914C17.9999 8.64622 15.1999 5.73111 11.7333 5.73111Z" fill="#E69803"/>
<path opacity="0.7" fill-rule="evenodd" clip-rule="evenodd" d="M17.6 17.7891C18.2666 18.0541 18.9333 18.0541 19.6 18.0541C23.0666 18.0541 26 15.2715 26 11.6938C26 8.24871 23.2 5.3336 19.6 5.3336C18.6666 5.3336 17.8667 5.4661 17.0667 5.86362C18.9333 7.45368 20 9.70627 20 12.0914C20 14.3439 19.0666 16.3315 17.6 17.7891Z" fill="#E69803"/>
<path d="M12 21.3667C7.6 21.3667 4 23.7518 4 26.6669H20C20 23.7518 16.4 21.3667 12 21.3667Z" fill="#E69803"/>
</svg>
