<svg width="24" height="24" viewBox="0 0 24 24" fill="none" xmlns="http://www.w3.org/2000/svg">
<path fill-rule="evenodd" clip-rule="evenodd" d="M12 3.75C7.44365 3.75 3.75 7.44365 3.75 12C3.75 16.5563 7.44365 20.25 12 20.25C16.5563 20.25 20.25 16.5563 20.25 12C20.25 7.44365 16.5563 3.75 12 3.75ZM2.25 12C2.25 6.61522 6.61522 2.25 12 2.25C17.3848 2.25 21.75 6.61522 21.75 12C21.75 17.3848 17.3848 21.75 12 21.75C6.61522 21.75 2.25 17.3848 2.25 12ZM8.46967 8.46967C8.76256 8.17678 9.23744 8.17678 9.53033 8.46967L12.0001 10.9394L14.4695 8.46991C14.7624 8.17702 15.2373 8.17702 15.5302 8.46991C15.8231 8.76281 15.8231 9.23768 15.5302 9.53057L13.0607 12.0001L15.5302 14.4695C15.8231 14.7624 15.8231 15.2373 15.5302 15.5302C15.2373 15.8231 14.7624 15.8231 14.4695 15.5302L12.0001 13.0607L9.53033 15.5304C9.23744 15.8233 8.76256 15.8233 8.46967 15.5304C8.17678 15.2376 8.17678 14.7627 8.46967 14.4698L10.9394 12.0001L8.46967 9.53033C8.17678 9.23744 8.17678 8.76256 8.46967 8.46967Z" fill="#FEFEFE"/>
</svg>
