<svg width="14" height="14" viewBox="0 0 14 14" fill="none" xmlns="http://www.w3.org/2000/svg">
<path fill-rule="evenodd" clip-rule="evenodd" d="M2.28586 11.7141C3.5449 12.9731 5.21936 13.6667 6.99992 13.6667C8.78047 13.6667 10.455 12.9731 11.714 11.7141C12.973 10.455 13.6666 8.78057 13.6666 7.00001C13.6666 5.21946 12.973 3.54499 11.714 2.28595C10.4549 1.0269 8.78047 0.333344 6.99992 0.333344C5.21936 0.333344 3.54488 1.02688 2.28586 2.28595C1.02684 3.54502 0.333252 5.21945 0.333252 7.00001C0.333252 8.78057 1.02681 10.455 2.28586 11.7141ZM1.33782 7.00001C1.33782 3.878 3.87791 1.33791 6.99992 1.33791C10.1219 1.33791 12.662 3.878 12.662 7.00001C12.662 10.122 10.1219 12.6621 6.99992 12.6621C3.87791 12.6621 1.33782 10.122 1.33782 7.00001ZM6.99992 6.49773C6.48385 6.49773 6.06385 6.07772 6.06385 5.56165C6.06385 5.04558 6.48385 4.62558 6.99992 4.62558C7.51599 4.62558 7.93599 5.04558 7.93599 5.56165C7.93599 5.83904 8.16086 6.06394 8.43828 6.06394C8.71569 6.06394 8.94056 5.83904 8.94056 5.56165C8.94056 4.66501 8.3294 3.9094 7.5022 3.6875V3.30138C7.5022 3.02399 7.27734 2.7991 6.99992 2.7991C6.7225 2.7991 6.49764 3.02399 6.49764 3.30138V3.6875C5.67044 3.9094 5.05928 4.66501 5.05928 5.56165C5.05928 6.63181 5.92976 7.50229 6.99992 7.50229C7.51599 7.50229 7.93599 7.9223 7.93599 8.43837C7.93599 8.95444 7.51599 9.37444 6.99992 9.37444C6.48385 9.37444 6.06385 8.95444 6.06385 8.43837C6.06385 8.16098 5.83898 7.93608 5.56156 7.93608C5.28414 7.93608 5.05928 8.16098 5.05928 8.43837C5.05928 9.33501 5.67044 10.0906 6.49764 10.3125V10.6986C6.49764 10.976 6.7225 11.2009 6.99992 11.2009C7.27734 11.2009 7.5022 10.976 7.5022 10.6986V10.3125C8.3294 10.0906 8.94056 9.33501 8.94056 8.43837C8.94056 7.36821 8.07007 6.49773 6.99992 6.49773Z" fill="#00A64C"/>
</svg>
