<svg width="32" height="32" viewBox="0 0 32 32" fill="none" xmlns="http://www.w3.org/2000/svg">
<path fill-rule="evenodd" clip-rule="evenodd" d="M15.2321 7.13434C15.2321 4.76087 17.3263 2.66663 19.8394 2.66663C22.3525 2.66663 24.3071 4.76087 24.3071 7.13434C24.3071 9.50781 22.2129 11.7417 19.8394 11.7417H16.349C15.6509 11.7417 15.2321 11.3228 15.2321 10.7644V7.13434ZM19.8394 4.76087C18.4432 4.76087 17.3263 5.87779 17.3263 7.27396V9.64743H19.8394C21.2355 9.64743 22.3525 8.5305 22.3525 7.13434C22.3525 5.73818 21.0959 4.76087 19.8394 4.76087Z" fill="#D96285"/>
<path fill-rule="evenodd" clip-rule="evenodd" d="M8.25122 7.13434C8.25122 4.76087 10.3455 2.66663 12.8586 2.66663C15.3716 2.66663 17.3263 4.76087 17.3263 7.13434V10.6247C17.3263 11.1832 16.9074 11.7417 16.2093 11.7417H12.8586C10.3455 11.7417 8.25122 9.64743 8.25122 7.13434ZM12.8586 4.76087C11.4624 4.76087 10.3455 5.87779 10.3455 7.27396C10.3455 8.67012 11.4624 9.64743 12.8586 9.64743H15.232V7.13434C15.232 5.87779 14.1151 4.76087 12.8586 4.76087Z" fill="#D96285"/>
<path d="M4.20264 19.6793V27.1516C4.20264 28.3611 5.31957 29.3287 6.71573 29.3287H8.80997H15.2323V19.6526C15.2323 19.6526 7.84485 19.6377 4.20264 19.6793Z" fill="#D96285"/>
<path d="M27.8 19.6793V27.1516C27.8 28.3611 26.6831 29.3287 25.287 29.3287H23.1927H16.7704V19.6526C16.7704 19.6526 24.1578 19.6377 27.8 19.6793Z" fill="#D96285"/>
<path opacity="0.7" d="M15.2322 10.6475H14.953H11.0437H7.27408H5.17984C3.78368 10.6475 2.66675 11.7644 2.66675 13.1606V15.9529C2.66675 16.9302 3.22521 17.7679 4.06291 18.1867C4.34214 18.3263 4.76099 18.3263 5.04022 18.3263C8.43726 18.3263 11.8347 18.3263 15.2322 18.3263V11.3455C15.2322 11.2059 15.2322 10.9267 15.2322 10.6475Z" fill="#D96285"/>
<path opacity="0.7" d="M16.7646 10.6475H17.0439H20.9531H24.7227H26.817C28.2131 10.6475 29.3301 11.7644 29.3301 13.1606V15.9529C29.3301 16.9302 28.7716 17.7679 27.9339 18.1867C27.6547 18.3263 27.2358 18.3263 26.9566 18.3263C23.5596 18.3263 20.1621 18.3263 16.7646 18.3263V11.3455C16.7646 11.2059 16.7646 10.9267 16.7646 10.6475Z" fill="#D96285"/>
</svg>
