<svg width="20" height="20" viewBox="0 0 20 20" fill="none" xmlns="http://www.w3.org/2000/svg">
<path d="M1.66675 4.79168C1.66675 4.23914 1.88624 3.70924 2.27694 3.31854C2.66764 2.92784 3.19755 2.70834 3.75008 2.70834H16.2501C16.8026 2.70834 17.3325 2.92784 17.7232 3.31854C18.1139 3.70924 18.3334 4.23914 18.3334 4.79168V15.2083C18.3334 15.7609 18.1139 16.2908 17.7232 16.6815C17.3325 17.0722 16.8026 17.2917 16.2501 17.2917H3.75008C3.19755 17.2917 2.66764 17.0722 2.27694 16.6815C1.88624 16.2908 1.66675 15.7609 1.66675 15.2083V4.79168ZM2.70841 14.1667V15.2083C2.70841 15.4846 2.81816 15.7496 3.01351 15.9449C3.20886 16.1403 3.47381 16.25 3.75008 16.25H16.2501C16.5264 16.25 16.7913 16.1403 16.9867 15.9449C17.182 15.7496 17.2917 15.4846 17.2917 15.2083V11.5625L13.3574 9.53438C13.2597 9.48545 13.1491 9.46848 13.0412 9.48586C12.9334 9.50325 12.8337 9.55411 12.7563 9.63126L8.89175 13.4958L6.12091 11.65C6.02087 11.5834 5.90088 11.5534 5.78127 11.5652C5.66166 11.577 5.5498 11.6298 5.46466 11.7146L2.70841 14.1667ZM7.91675 7.39584C7.91675 6.98144 7.75213 6.58401 7.4591 6.29099C7.16608 5.99796 6.76865 5.83334 6.35425 5.83334C5.93985 5.83334 5.54242 5.99796 5.24939 6.29099C4.95637 6.58401 4.79175 6.98144 4.79175 7.39584C4.79175 7.81024 4.95637 8.20767 5.24939 8.5007C5.54242 8.79372 5.93985 8.95834 6.35425 8.95834C6.76865 8.95834 7.16608 8.79372 7.4591 8.5007C7.75213 8.20767 7.91675 7.81024 7.91675 7.39584Z" fill="#0C85F2"/>
</svg>
