<svg width="25" height="24" viewBox="0 0 25 24" fill="none" xmlns="http://www.w3.org/2000/svg">
<path fill-rule="evenodd" clip-rule="evenodd" d="M15.9697 12.4697C16.2626 12.1768 16.7374 12.1768 17.0303 12.4697L20.0303 15.4697C20.171 15.6103 20.25 15.8011 20.25 16C20.25 16.1989 20.171 16.3897 20.0303 16.5303L17.0303 19.5303C16.7374 19.8232 16.2626 19.8232 15.9697 19.5303C15.6768 19.2374 15.6768 18.7626 15.9697 18.4697L18.4393 16L15.9697 13.5303C15.6768 13.2374 15.6768 12.7626 15.9697 12.4697Z" fill="#000"/>
<path fill-rule="evenodd" clip-rule="evenodd" d="M4.75 16C4.75 15.5858 5.08579 15.25 5.5 15.25H19.5C19.9142 15.25 20.25 15.5858 20.25 16C20.25 16.4142 19.9142 16.75 19.5 16.75H5.5C5.08579 16.75 4.75 16.4142 4.75 16Z" fill="#000"/>
<path fill-rule="evenodd" clip-rule="evenodd" d="M9.03033 4.46967C9.32322 4.76256 9.32322 5.23744 9.03033 5.53033L6.56066 8L9.03033 10.4697C9.32322 10.7626 9.32322 11.2374 9.03033 11.5303C8.73744 11.8232 8.26256 11.8232 7.96967 11.5303L4.96967 8.53033C4.67678 8.23744 4.67678 7.76256 4.96967 7.46967L7.96967 4.46967C8.26256 4.17678 8.73744 4.17678 9.03033 4.46967Z" fill="#000"/>
<path fill-rule="evenodd" clip-rule="evenodd" d="M5.5 7.25L19.5 7.25C19.9142 7.25 20.25 7.58579 20.25 8C20.25 8.41421 19.9142 8.75 19.5 8.75L5.5 8.75C5.08579 8.75 4.75 8.41421 4.75 8C4.75 7.58579 5.08579 7.25 5.5 7.25Z" fill="#000"/>
</svg>
