<svg width="25" height="24" viewBox="0 0 25 24" fill="none" xmlns="http://www.w3.org/2000/svg">
<path fill-rule="evenodd" clip-rule="evenodd" d="M17.8857 2C18.4571 2 18.8857 2.33126 19.3143 2.66253L21.6 5.80953H2.59998L4.74283 2.66253C5.1714 2.33126 5.59998 2 6.1714 2H17.8857ZM2.12498 7.1306C1.73123 7.49926 1.59998 7.99081 1.59998 8.48236V8.72814C1.59998 9.71124 2.12498 10.5715 2.91248 11.1859C2.99998 11.3498 3.08748 11.4044 3.17498 11.459C3.21873 11.4863 3.26248 11.5136 3.30623 11.5546C3.83123 11.8003 4.35623 11.9232 5.01248 11.9232H5.66873C6.32498 11.8003 6.98123 11.5546 7.37498 11.063C8.03123 11.5546 8.81873 11.9232 9.73748 11.9232C10.6562 11.9232 11.4437 11.5546 12.1 11.063C12.7562 11.5546 13.5437 11.9232 14.4625 11.9232C15.3812 11.9232 16.1687 11.5546 16.825 11.063C17.35 11.5546 17.875 11.8003 18.5312 11.9232H19.1875C19.8437 11.9232 20.3687 11.8003 20.8937 11.5546C20.9593 11.4931 21.025 11.4624 21.0906 11.4317C21.1562 11.401 21.2218 11.3702 21.2875 11.3088C21.3531 11.2473 21.4187 11.2166 21.4844 11.1859C21.55 11.1552 21.6156 11.1245 21.6812 11.063C22.2062 10.4486 22.6 9.58836 22.6 8.72814V8.48236C22.6 7.99081 22.4687 7.49926 22.075 7.1306L21.8125 6.88482H2.38748L2.12498 7.1306ZM19.1875 12.9063H18.5312C17.875 12.7834 17.2187 12.5376 16.825 12.0461C16.1687 12.6605 15.3812 12.9063 14.4625 12.9063C13.5437 12.9063 12.7562 12.5376 12.1 12.0461C11.4437 12.5376 10.6562 12.9063 9.73748 12.9063C8.81873 12.9063 8.03123 12.5376 7.37498 12.0461C6.84998 12.4147 6.32498 12.7834 5.66873 12.9063H5.01248C4.35623 12.9063 3.83123 12.7834 3.30623 12.5376C3.17498 12.4147 3.04373 12.2918 2.91248 12.2918V20.7711C2.91248 21.5084 3.43748 22 4.22498 22H8.81873V15.8556C8.81873 15.1183 9.34373 14.6267 10.1312 14.6267H14.0687C14.8562 14.6267 15.3812 15.1183 15.3812 15.8556V22H19.975C20.7625 22 21.2875 21.5084 21.2875 20.7711V12.169C21.1562 12.2918 21.025 12.4147 20.8937 12.4147C20.3687 12.7834 19.8437 12.9063 19.1875 12.9063Z" fill="#000"/>
</svg>
