<svg width="24" height="24" viewBox="0 0 24 24" fill="none" xmlns="http://www.w3.org/2000/svg">
<path fill-rule="evenodd" clip-rule="evenodd" d="M2.25002 10C2.25002 6.27208 5.2721 3.25 9.00002 3.25C12.7279 3.25 15.75 6.27208 15.75 10C15.75 13.7279 12.7279 16.75 9.00002 16.75C7.80303 16.75 6.67708 16.4378 5.70115 15.8902L3.23719 16.7115C2.96769 16.8013 2.67056 16.7312 2.46969 16.5303C2.26882 16.3295 2.19867 16.0323 2.28851 15.7628L3.10983 13.2989C2.56221 12.3229 2.25002 11.197 2.25002 10ZM9.00002 4.75C6.10053 4.75 3.75002 7.1005 3.75002 10C3.75002 11.0343 4.04833 11.9966 4.5633 12.8082C4.68411 12.9986 4.71283 13.2333 4.64153 13.4472L4.18587 14.8141L5.55283 14.3585C5.76675 14.2872 6.0014 14.3159 6.1918 14.4367C7.00347 14.9517 7.96576 15.25 9.00002 15.25C11.8995 15.25 14.25 12.8995 14.25 10C14.25 7.1005 11.8995 4.75 9.00002 4.75Z" fill="#FEFEFE"/>
<path fill-rule="evenodd" clip-rule="evenodd" d="M15.0001 7.25C18.728 7.25 21.7501 10.2721 21.7501 14C21.7501 15.1967 21.4381 16.3228 20.8903 17.2989L21.7116 19.7628C21.8015 20.0323 21.7313 20.3295 21.5304 20.5303C21.3296 20.7312 21.0324 20.8013 20.7629 20.7115L18.299 19.8902C17.323 20.4379 16.1971 20.75 15.0001 20.75C12.0556 20.75 9.55323 18.865 8.63026 16.2382C8.49295 15.8474 8.69843 15.4193 9.08923 15.282C9.48002 15.1447 9.90813 15.3502 10.0454 15.741C10.7639 17.7858 12.712 19.25 15.0001 19.25C16.0344 19.25 16.9967 18.9517 17.8083 18.4367C17.9987 18.3159 18.2333 18.2872 18.4473 18.3585L19.8142 18.8141L19.3586 17.4472C19.2892 17.2389 19.3145 17.0108 19.4278 16.8228L19.5652 16.5948C20.001 15.8302 20.2501 14.9453 20.2501 14C20.2501 11.1027 17.9032 8.75361 15.0068 8.75L14.802 8.75377L14.7021 8.75908C14.2884 8.78107 13.9353 8.46357 13.9133 8.04995C13.8913 7.63632 14.2088 7.28318 14.6225 7.2612L14.7354 7.2552C14.744 7.25474 14.7527 7.25442 14.7614 7.25427L15.0001 7.25Z" fill="#FEFEFE"/>
</svg>
