<svg width="24" height="24" viewBox="0 0 24 24" fill="none" xmlns="http://www.w3.org/2000/svg">
<path d="M12 7C11.4477 7 11 6.55228 11 6C11 5.44772 11.4477 5 12 5C12.5523 5 13 5.44772 13 6C13 6.55228 12.5523 7 12 7Z" fill="#000"/>
<path fill-rule="evenodd" clip-rule="evenodd" d="M12 7.75C11.0335 7.75 10.25 6.9665 10.25 6C10.25 5.0335 11.0335 4.25 12 4.25C12.9665 4.25 13.75 5.0335 13.75 6C13.75 6.9665 12.9665 7.75 12 7.75ZM11.75 6C11.75 6.13807 11.8619 6.25 12 6.25C12.1381 6.25 12.25 6.13807 12.25 6C12.25 5.86193 12.1381 5.75 12 5.75C11.8619 5.75 11.75 5.86193 11.75 6Z" fill="#000"/>
<path d="M12 13C11.4477 13 11 12.5523 11 12C11 11.4477 11.4477 11 12 11C12.5523 11 13 11.4477 13 12C13 12.5523 12.5523 13 12 13Z" fill="#000"/>
<path fill-rule="evenodd" clip-rule="evenodd" d="M12 13.75C11.0335 13.75 10.25 12.9665 10.25 12C10.25 11.0335 11.0335 10.25 12 10.25C12.9665 10.25 13.75 11.0335 13.75 12C13.75 12.9665 12.9665 13.75 12 13.75ZM11.75 12C11.75 12.1381 11.8619 12.25 12 12.25C12.1381 12.25 12.25 12.1381 12.25 12C12.25 11.8619 12.1381 11.75 12 11.75C11.8619 11.75 11.75 11.8619 11.75 12Z" fill="#000"/>
<path d="M12 19C11.4477 19 11 18.5523 11 18C11 17.4477 11.4477 17 12 17C12.5523 17 13 17.4477 13 18C13 18.5523 12.5523 19 12 19Z" fill="#000"/>
<path fill-rule="evenodd" clip-rule="evenodd" d="M12 19.75C11.0335 19.75 10.25 18.9665 10.25 18C10.25 17.0335 11.0335 16.25 12 16.25C12.9665 16.25 13.75 17.0335 13.75 18C13.75 18.9665 12.9665 19.75 12 19.75ZM11.75 18C11.75 18.1381 11.8619 18.25 12 18.25C12.1381 18.25 12.25 18.1381 12.25 18C12.25 17.8619 12.1381 17.75 12 17.75C11.8619 17.75 11.75 17.8619 11.75 18Z" fill="#000"/>
</svg>
