<svg width="25" height="24" viewBox="0 0 25 24" fill="none" xmlns="http://www.w3.org/2000/svg">
<path d="M12.4428 17.2328C12.0008 17.2328 11.6456 17.588 11.6456 18.0299C11.6456 18.4719 12.0008 18.8271 12.4428 18.8271C12.8848 18.8271 13.2399 18.4719 13.2399 18.0299C13.2399 17.588 12.8769 17.2328 12.4428 17.2328Z" fill="#000"/>
<path d="M20.6271 5.64641L17.912 2.47356C17.6594 2.17364 17.2806 2 16.8938 2H7.99093C7.5963 2 7.22534 2.17364 6.97278 2.47356L4.24981 5.64641C3.95778 5.9779 3.79993 6.412 3.79993 6.85399V7.12234C3.79993 7.98264 4.19456 8.78769 4.87333 9.31649C4.98383 9.40331 5.09432 9.47435 5.21271 9.53749C5.55999 9.73481 5.94673 9.8532 6.34136 9.88477V20.9424C6.34136 21.5264 6.81492 22 7.39898 22H17.4779C18.062 22 18.5355 21.5264 18.5355 20.9424V9.88477C18.938 9.8532 19.3248 9.73481 19.6642 9.53749C19.972 9.36385 20.2403 9.13496 20.4692 8.85083C20.8717 8.3457 21.0691 7.71429 21.0691 7.07498V6.86188C21.077 6.412 20.9191 5.9779 20.6271 5.64641ZM7.93568 20.4136V9.54538C8.15667 9.42699 8.35399 9.27703 8.53552 9.0955C9.04855 9.60852 9.7431 9.90055 10.4929 9.90055C11.2348 9.90055 11.9294 9.60852 12.4424 9.0955C12.9554 9.60063 13.6658 9.90055 14.3998 9.90055C15.1417 9.90055 15.8362 9.60852 16.3493 9.0955C16.5308 9.27703 16.7281 9.42699 16.9491 9.54538V20.4136H7.93568ZM19.4353 7.12234C19.4353 7.43804 19.309 7.72218 19.0959 7.92739C18.8907 8.1326 18.6144 8.25099 18.2987 8.25099C18.1093 8.25099 17.9357 8.20363 17.7778 8.1247C17.4148 7.93528 17.1622 7.55643 17.1622 7.12234C17.1622 6.80663 16.9965 6.50671 16.7123 6.38043C16.1046 6.10418 15.5205 6.54617 15.5205 7.12234C15.5205 7.74586 15.0154 8.25099 14.3919 8.25099C13.7684 8.25099 13.2632 7.74586 13.2632 7.13023C13.2632 6.71192 12.9475 6.34886 12.5292 6.3015C12.032 6.25414 11.6137 6.64088 11.6137 7.12234C11.6137 7.74586 11.1085 8.25099 10.485 8.25099C9.86149 8.25099 9.35636 7.74586 9.35636 7.13023C9.35636 6.71192 9.04065 6.34886 8.62234 6.3015C8.1251 6.24625 7.70679 6.63299 7.70679 7.12234C7.70679 7.55643 7.45423 7.93528 7.09117 8.1247C6.93331 8.20363 6.75967 8.25099 6.57025 8.25099C6.26244 8.25099 5.9783 8.1247 5.77309 7.92739C5.56788 7.72218 5.43371 7.43804 5.43371 7.12234V6.85399C5.43371 6.79874 5.44949 6.75138 5.48896 6.71192L8.11721 3.64167H16.7439L19.3721 6.71192C19.4037 6.75138 19.4274 6.79874 19.4274 6.85399V7.12234H19.4353Z" fill="#000"/>
</svg>
