<svg width="17" height="16" viewBox="0 0 17 16" fill="none" xmlns="http://www.w3.org/2000/svg">
<path d="M5.16671 2.58333H4.33337C3.89135 2.58333 3.46742 2.75893 3.15486 3.07149C2.8423 3.38405 2.66671 3.80797 2.66671 4.25V13C2.66671 13.442 2.8423 13.866 3.15486 14.1785C3.46742 14.4911 3.89135 14.6667 4.33337 14.6667H12.6667C13.1087 14.6667 13.5327 14.4911 13.8452 14.1785C14.1578 13.866 14.3334 13.442 14.3334 13V4.25C14.3334 3.80797 14.1578 3.38405 13.8452 3.07149C13.5327 2.75893 13.1087 2.58333 12.6667 2.58333H11.8334V3.41667H12.6667C12.8877 3.41667 13.0997 3.50446 13.256 3.66074C13.4122 3.81702 13.5 4.02899 13.5 4.25V13C13.5 13.221 13.4122 13.433 13.256 13.5893C13.0997 13.7455 12.8877 13.8333 12.6667 13.8333H4.33337C4.11236 13.8333 3.9004 13.7455 3.74412 13.5893C3.58784 13.433 3.50004 13.221 3.50004 13V4.25C3.50004 4.02899 3.58784 3.81702 3.74412 3.66074C3.9004 3.50446 4.11236 3.41667 4.33337 3.41667H5.16671V2.58333Z" fill="#00A64C"/>
<path fill-rule="evenodd" clip-rule="evenodd" d="M5.25004 2.5V3.5H4.33337C4.13446 3.5 3.9437 3.57902 3.80304 3.71967C3.66239 3.86032 3.58337 4.05109 3.58337 4.25V13C3.58337 13.1989 3.66239 13.3897 3.80304 13.5303C3.9437 13.671 4.13446 13.75 4.33337 13.75H12.6667C12.8656 13.75 13.0564 13.671 13.197 13.5303C13.3377 13.3897 13.4167 13.1989 13.4167 13V4.25C13.4167 4.05109 13.3377 3.86032 13.197 3.71967C13.0564 3.57902 12.8656 3.5 12.6667 3.5H11.75V2.5H12.6667C13.1308 2.5 13.576 2.68437 13.9041 3.01256C14.2323 3.34075 14.4167 3.78587 14.4167 4.25V13C14.4167 13.4641 14.2323 13.9092 13.9041 14.2374C13.576 14.5656 13.1308 14.75 12.6667 14.75H4.33337C3.86925 14.75 3.42413 14.5656 3.09594 14.2374C2.76775 13.9092 2.58337 13.4641 2.58337 13V4.25C2.58337 3.78587 2.76775 3.34075 3.09594 3.01256C3.42413 2.68437 3.86925 2.5 4.33337 2.5H5.25004ZM4.33337 2.58333C3.89135 2.58333 3.46742 2.75893 3.15486 3.07149C2.8423 3.38405 2.66671 3.80797 2.66671 4.25V13C2.66671 13.442 2.8423 13.866 3.15486 14.1785C3.46742 14.4911 3.89135 14.6667 4.33337 14.6667H12.6667C13.1087 14.6667 13.5327 14.4911 13.8452 14.1785C14.1578 13.866 14.3334 13.442 14.3334 13V4.25C14.3334 3.80797 14.1578 3.38405 13.8452 3.07149C13.5327 2.75893 13.1087 2.58333 12.6667 2.58333H11.8334V3.41667H12.6667C12.8877 3.41667 13.0997 3.50446 13.256 3.66074C13.4122 3.81702 13.5 4.02899 13.5 4.25V13C13.5 13.221 13.4122 13.433 13.256 13.5893C13.0997 13.7455 12.8877 13.8333 12.6667 13.8333H4.33337C4.11236 13.8333 3.9004 13.7455 3.74412 13.5893C3.58784 13.433 3.50004 13.221 3.50004 13V4.25C3.50004 4.02899 3.58784 3.81702 3.74412 3.66074C3.9004 3.50446 4.11236 3.41667 4.33337 3.41667H5.16671V2.58333H4.33337Z" fill="#00A64C"/>
<path d="M9.74996 2.16667C9.86047 2.16667 9.96645 2.21057 10.0446 2.28871C10.1227 2.36685 10.1666 2.47283 10.1666 2.58333V3.41667C10.1666 3.52717 10.1227 3.63315 10.0446 3.71129C9.96645 3.78943 9.86047 3.83333 9.74996 3.83333H7.24996C7.13945 3.83333 7.03347 3.78943 6.95533 3.71129C6.87719 3.63315 6.83329 3.52717 6.83329 3.41667V2.58333C6.83329 2.47283 6.87719 2.36685 6.95533 2.28871C7.03347 2.21057 7.13945 2.16667 7.24996 2.16667H9.74996ZM7.24996 1.33333C6.91844 1.33333 6.6005 1.46503 6.36608 1.69945C6.13166 1.93387 5.99996 2.25181 5.99996 2.58333V3.41667C5.99996 3.74819 6.13166 4.06613 6.36608 4.30055C6.6005 4.53497 6.91844 4.66667 7.24996 4.66667H9.74996C10.0815 4.66667 10.3994 4.53497 10.6338 4.30055C10.8683 4.06613 11 3.74819 11 3.41667V2.58333C11 2.25181 10.8683 1.93387 10.6338 1.69945C10.3994 1.46503 10.0815 1.33333 9.74996 1.33333H7.24996Z" fill="#00A64C"/>
<path fill-rule="evenodd" clip-rule="evenodd" d="M9.98566 2.34763C9.92315 2.28512 9.83836 2.25 9.74996 2.25H7.24996C7.16155 2.25 7.07677 2.28512 7.01426 2.34763C6.95174 2.41014 6.91663 2.49493 6.91663 2.58333V3.41667C6.91663 3.50507 6.95174 3.58986 7.01426 3.65237C7.07677 3.71488 7.16155 3.75 7.24996 3.75H9.74996C9.83836 3.75 9.92315 3.71488 9.98566 3.65237C10.0482 3.58986 10.0833 3.50507 10.0833 3.41667V2.58333C10.0833 2.49493 10.0482 2.41014 9.98566 2.34763ZM6.30715 1.64052C6.5572 1.39048 6.89634 1.25 7.24996 1.25H9.74996C10.1036 1.25 10.4427 1.39048 10.6928 1.64052C10.9428 1.89057 11.0833 2.22971 11.0833 2.58333V3.41667C11.0833 3.77029 10.9428 4.10943 10.6928 4.35948C10.4427 4.60952 10.1036 4.75 9.74996 4.75H7.24996C6.89634 4.75 6.5572 4.60952 6.30715 4.35948C6.0571 4.10943 5.91663 3.77029 5.91663 3.41667V2.58333C5.91663 2.22971 6.0571 1.89057 6.30715 1.64052ZM10.0446 2.28871C9.96645 2.21057 9.86047 2.16667 9.74996 2.16667H7.24996C7.13945 2.16667 7.03347 2.21057 6.95533 2.28871C6.87719 2.36685 6.83329 2.47283 6.83329 2.58333V3.41667C6.83329 3.52717 6.87719 3.63315 6.95533 3.71129C7.03347 3.78943 7.13945 3.83333 7.24996 3.83333H9.74996C9.86047 3.83333 9.96645 3.78943 10.0446 3.71129C10.1227 3.63315 10.1666 3.52717 10.1666 3.41667V2.58333C10.1666 2.47283 10.1227 2.36685 10.0446 2.28871ZM6.36608 1.69945C6.6005 1.46503 6.91844 1.33333 7.24996 1.33333H9.74996C10.0815 1.33333 10.3994 1.46503 10.6338 1.69945C10.8683 1.93387 11 2.25181 11 2.58333V3.41667C11 3.74819 10.8683 4.06613 10.6338 4.30055C10.3994 4.53497 10.0815 4.66667 9.74996 4.66667H7.24996C6.91844 4.66667 6.6005 4.53497 6.36608 4.30055C6.13166 4.06613 5.99996 3.74819 5.99996 3.41667V2.58333C5.99996 2.25181 6.13166 1.93387 6.36608 1.69945Z" fill="#00A64C"/>
<path fill-rule="evenodd" clip-rule="evenodd" d="M10.8536 6.97979C11.0488 7.17505 11.0488 7.49163 10.8536 7.6869L8.18689 10.3536C7.99162 10.5488 7.67504 10.5488 7.47978 10.3536L6.14645 9.02023C5.95118 8.82497 5.95118 8.50839 6.14645 8.31312C6.34171 8.11786 6.65829 8.11786 6.85355 8.31312L7.83333 9.2929L10.1464 6.97979C10.3417 6.78453 10.6583 6.78453 10.8536 6.97979Z" fill="#00A64C"/>
</svg>
