<svg width="32" height="32" viewBox="0 0 32 32" fill="none" xmlns="http://www.w3.org/2000/svg">
<path opacity="0.7" fill-rule="evenodd" clip-rule="evenodd" d="M13.1816 2.66667C12.5506 2.66667 11.9196 2.91431 11.4148 3.40959C10.91 3.90487 10.6576 4.52396 10.6576 5.14306V6.62889C10.6576 7.24799 10.91 7.86708 11.4148 8.36236C11.9196 8.85764 12.5506 9.10528 13.1816 9.10528H17.9771C18.6081 9.10528 19.2391 8.85764 19.7439 8.36236C20.2487 7.86708 20.5011 7.24799 20.5011 6.62889V5.14306C20.5011 4.52396 20.2487 3.90487 19.7439 3.40959C19.2391 2.91431 18.6081 2.66667 17.9771 2.66667H13.1816Z" fill="#E69803"/>
<path fill-rule="evenodd" clip-rule="evenodd" d="M23.8612 4.37044C24.8439 4.37044 25.6862 4.77744 26.2477 5.32012C26.9496 5.99846 27.3708 6.94814 27.5111 7.89782V25.6704C27.5111 26.6201 27.09 27.5697 26.3881 28.2481C25.6862 28.9264 24.7035 29.3334 23.7208 29.3334H8.27863C7.29595 29.3334 6.31326 28.9264 5.61135 28.2481C4.51985 27.2679 4.48828 26.6201 4.48828 25.6704V7.89782C4.48828 6.94814 4.76905 5.99846 5.47096 5.45578C6.17288 4.77744 8.66602 4.37044 9.6487 4.37044V6.13413C9.6487 7.35514 9.81584 8.44049 10.6581 9.11883C11.5004 9.79717 12.3337 10.1275 13.6062 10.2042H14.4555H17.5439C18.667 10.2042 19.6497 9.66151 20.492 8.98316C21.323 8.31388 21.3229 7.2484 21.3227 6.17762L21.3227 6.13413V4.37044H23.5804H23.8612ZM20.7071 14.892C21.0976 14.5015 21.0976 13.8683 20.7071 13.4778C20.3166 13.0873 19.6834 13.0873 19.2929 13.4778L14.6667 18.104L12.7071 16.1445C12.3166 15.7539 11.6834 15.7539 11.2929 16.1445C10.9024 16.535 10.9024 17.1681 11.2929 17.5587L13.9596 20.2253C14.3501 20.6159 14.9832 20.6159 15.3738 20.2253L20.7071 14.892Z" fill="#E69803"/>
</svg>
