<svg width="32" height="32" viewBox="0 0 32 32" fill="none" xmlns="http://www.w3.org/2000/svg">
<path d="M3.33496 6.05393C3.33496 5.33415 3.62089 4.64385 4.12985 4.13489C4.63881 3.62593 5.32911 3.34 6.04889 3.34H11.4767C12.1965 3.34 12.8868 3.62593 13.3958 4.13489C13.9047 4.64385 14.1907 5.33415 14.1907 6.05393V11.4818C14.1907 12.2016 13.9047 12.8919 13.3958 13.4008C12.8868 13.9098 12.1965 14.1957 11.4767 14.1957H6.04889C5.32911 14.1957 4.63881 13.9098 4.12985 13.4008C3.62089 12.8919 3.33496 12.2016 3.33496 11.4818V6.05393ZM17.8092 6.05393C17.8092 5.33415 18.0952 4.64385 18.6041 4.13489C19.1131 3.62593 19.8034 3.34 20.5232 3.34H25.951C26.6708 3.34 27.3611 3.62593 27.8701 4.13489C28.379 4.64385 28.665 5.33415 28.665 6.05393V11.4818C28.665 12.2016 28.379 12.8919 27.8701 13.4008C27.3611 13.9098 26.6708 14.1957 25.951 14.1957H20.5232C19.8034 14.1957 19.1131 13.9098 18.6041 13.4008C18.0952 12.8919 17.8092 12.2016 17.8092 11.4818V6.05393ZM3.33496 20.5282C3.33496 19.8084 3.62089 19.1181 4.12985 18.6092C4.63881 18.1002 5.32911 17.8143 6.04889 17.8143H11.4767C12.1965 17.8143 12.8868 18.1002 13.3958 18.6092C13.9047 19.1181 14.1907 19.8084 14.1907 20.5282V25.9561C14.1907 26.6758 13.9047 27.3661 13.3958 27.8751C12.8868 28.3841 12.1965 28.67 11.4767 28.67H6.04889C5.32911 28.67 4.63881 28.3841 4.12985 27.8751C3.62089 27.3661 3.33496 26.6758 3.33496 25.9561V20.5282Z" fill="#8F9BA8"/>
<path opacity="0.7" d="M27.2119 21.9981H24.0777V18.8639C24.0777 18.2928 23.6041 17.8191 23.033 17.8191C22.4619 17.8191 21.9883 18.2928 21.9883 18.8639V21.9981H18.8541C18.2829 21.9981 17.8093 22.4717 17.8093 23.0428C17.8093 23.6139 18.2829 24.0875 18.8541 24.0875H21.9883V27.2217C21.9883 27.7929 22.4619 28.2665 23.033 28.2665C23.6041 28.2665 24.0777 27.7929 24.0777 27.2217V24.0875H27.2119C27.783 24.0875 28.2566 23.6139 28.2566 23.0428C28.2566 22.4717 27.783 21.9981 27.2119 21.9981Z" fill="#8F9BA8"/>
</svg>
