<svg width="25" height="24" viewBox="0 0 25 24" fill="none" xmlns="http://www.w3.org/2000/svg">
<path d="M17.9001 12C17.9001 11.4477 18.3479 11 18.9001 11C19.4524 11 19.9001 11.4477 19.9001 12C19.9001 12.5523 19.4524 13 18.9001 13C18.3479 13 17.9001 12.5523 17.9001 12Z" fill="#000"/>
<path fill-rule="evenodd" clip-rule="evenodd" d="M17.1501 12C17.1501 11.0335 17.9336 10.25 18.9001 10.25C19.8666 10.25 20.6501 11.0335 20.6501 12C20.6501 12.9665 19.8666 13.75 18.9001 13.75C17.9336 13.75 17.1501 12.9665 17.1501 12ZM18.9001 11.75C18.7621 11.75 18.6501 11.8619 18.6501 12C18.6501 12.1381 18.7621 12.25 18.9001 12.25C19.0382 12.25 19.1501 12.1381 19.1501 12C19.1501 11.8619 19.0382 11.75 18.9001 11.75Z" fill="#000"/>
<path d="M11.9001 12C11.9001 11.4477 12.3479 11 12.9001 11C13.4524 11 13.9001 11.4477 13.9001 12C13.9001 12.5523 13.4524 13 12.9001 13C12.3479 13 11.9001 12.5523 11.9001 12Z" fill="#000"/>
<path fill-rule="evenodd" clip-rule="evenodd" d="M11.1501 12C11.1501 11.0335 11.9336 10.25 12.9001 10.25C13.8666 10.25 14.6501 11.0335 14.6501 12C14.6501 12.9665 13.8666 13.75 12.9001 13.75C11.9336 13.75 11.1501 12.9665 11.1501 12ZM12.9001 11.75C12.7621 11.75 12.6501 11.8619 12.6501 12C12.6501 12.1381 12.7621 12.25 12.9001 12.25C13.0382 12.25 13.1501 12.1381 13.1501 12C13.1501 11.8619 13.0382 11.75 12.9001 11.75Z" fill="#000"/>
<path d="M5.90015 12C5.90015 11.4477 6.34786 11 6.90015 11C7.45243 11 7.90015 11.4477 7.90015 12C7.90015 12.5523 7.45243 13 6.90015 13C6.34786 13 5.90015 12.5523 5.90015 12Z" fill="#000"/>
<path fill-rule="evenodd" clip-rule="evenodd" d="M5.15015 12C5.15015 11.0335 5.93365 10.25 6.90015 10.25C7.86664 10.25 8.65015 11.0335 8.65015 12C8.65015 12.9665 7.86664 13.75 6.90015 13.75C5.93365 13.75 5.15015 12.9665 5.15015 12ZM6.90015 11.75C6.76208 11.75 6.65015 11.8619 6.65015 12C6.65015 12.1381 6.76208 12.25 6.90015 12.25C7.03822 12.25 7.15015 12.1381 7.15015 12C7.15015 11.8619 7.03822 11.75 6.90015 11.75Z" fill="#000"/>
</svg>
