<svg
  width="32"
  height="32"
  viewBox="0 0 32 32"
  fill="none"
  xmlns="http://www.w3.org/2000/svg">
  <path
    fill-rule="evenodd"
    clip-rule="evenodd"
    d="M5.42017 15.4812C5.42017 14.4488 6.48979 13.6119 7.80923 13.6119H24.1914C25.5108 13.6119 26.5804 14.4488 26.5804 15.4812V24.0266C26.5804 25.059 25.5108 25.8959 24.1914 25.8959H7.80923C6.48979 25.8959 5.42017 25.059 5.42017 24.0266V15.4812Z"
    fill="#E69803"
  />
  <path
    opacity="0.7"
    fill-rule="evenodd"
    clip-rule="evenodd"
    d="M4.1499 7.0718C4.60048 6.46365 5.31267 6.10498 6.06965 6.10498H25.9304C26.6874 6.10498 27.3996 6.46365 27.8502 7.07181L28.8614 8.4367C30.0293 10.0131 28.9038 12.247 26.9417 12.247H5.05841C3.09625 12.247 1.97073 10.0131 3.13866 8.4367L4.1499 7.0718Z"
    fill="#E69803"
  />
</svg>
