<svg width="24" height="24" viewBox="0 0 24 24" fill="none" xmlns="http://www.w3.org/2000/svg">
<path fill-rule="evenodd" clip-rule="evenodd" d="M1.71484 2.35785C1.71484 2.18736 1.78257 2.02384 1.90313 1.90328C2.02369 1.78273 2.1872 1.715 2.3577 1.715H6.21484C6.38534 1.715 6.54885 1.78273 6.66941 1.90328C6.78997 2.02384 6.8577 2.18736 6.8577 2.35785C6.8577 2.52835 6.78997 2.69186 6.66941 2.81242C6.54885 2.93298 6.38534 3.00071 6.21484 3.00071H3.00056V6.215C3.00056 6.38549 2.93283 6.54901 2.81227 6.66956C2.69171 6.79012 2.5282 6.85785 2.3577 6.85785C2.1872 6.85785 2.02369 6.79012 1.90313 6.66956C1.78257 6.54901 1.71484 6.38549 1.71484 6.215V2.35785ZM17.1434 2.35785C17.1434 2.18736 17.2111 2.02384 17.3317 1.90328C17.4523 1.78273 17.6158 1.715 17.7863 1.715H21.6434C21.8139 1.715 21.9774 1.78273 22.098 1.90328C22.2185 2.02384 22.2863 2.18736 22.2863 2.35785V6.215C22.2863 6.38549 22.2185 6.54901 22.098 6.66956C21.9774 6.79012 21.8139 6.85785 21.6434 6.85785C21.4729 6.85785 21.3094 6.79012 21.1888 6.66956C21.0683 6.54901 21.0006 6.38549 21.0006 6.215V3.00071H17.7863C17.6158 3.00071 17.4523 2.93298 17.3317 2.81242C17.2111 2.69186 17.1434 2.52835 17.1434 2.35785ZM2.3577 17.1436C2.5282 17.1436 2.69171 17.2113 2.81227 17.3319C2.93283 17.4524 3.00056 17.6159 3.00056 17.7864V21.0007H6.21484C6.38534 21.0007 6.54885 21.0684 6.66941 21.189C6.78997 21.3096 6.8577 21.4731 6.8577 21.6436C6.8577 21.8141 6.78997 21.9776 6.66941 22.0981C6.54885 22.2187 6.38534 22.2864 6.21484 22.2864H2.3577C2.1872 22.2864 2.02369 22.2187 1.90313 22.0981C1.78257 21.9776 1.71484 21.8141 1.71484 21.6436V17.7864C1.71484 17.6159 1.78257 17.4524 1.90313 17.3319C2.02369 17.2113 2.1872 17.1436 2.3577 17.1436ZM21.6434 17.1436C21.8139 17.1436 21.9774 17.2113 22.098 17.3319C22.2185 17.4524 22.2863 17.6159 22.2863 17.7864V21.6436C22.2863 21.8141 22.2185 21.9776 22.098 22.0981C21.9774 22.2187 21.8139 22.2864 21.6434 22.2864H17.7863C17.6158 22.2864 17.4523 22.2187 17.3317 22.0981C17.2111 21.9776 17.1434 21.8141 17.1434 21.6436C17.1434 21.4731 17.2111 21.3096 17.3317 21.189C17.4523 21.0684 17.6158 21.0007 17.7863 21.0007H21.0006V17.7864C21.0006 17.6159 21.0683 17.4524 21.1888 17.3319C21.3094 17.2113 21.4729 17.1436 21.6434 17.1436ZM5.57199 5.57214H9.42913V9.42928H5.57199V5.57214ZM5.57199 14.5721H9.42913V18.4293H5.57199V14.5721ZM14.572 5.57214H18.4291V9.42928H14.572V5.57214ZM10.7148 4.28642H4.28627V10.715H10.7148V4.28642ZM10.7148 13.2864H4.28627V19.715H10.7148V13.2864ZM13.2863 4.28642H19.7148V10.715H13.2863V4.28642ZM6.8577 6.85785H8.14341V8.14357H6.8577V6.85785ZM15.8577 6.85785H17.1434V8.14357H15.8577V6.85785ZM8.14341 15.8579H6.8577V17.1436H8.14341V15.8579ZM12.0006 12.0007V14.5721H13.2863V15.8579H12.0006V17.1436H14.572V14.5721H15.8577V17.1436H17.1434V15.8579H19.7148V14.5721H15.8577V12.0007H12.0006ZM14.572 14.5721V13.2864H13.2863V14.5721H14.572ZM19.7148 17.1436H18.4291V18.4293H15.8577V19.715H19.7148V17.1436ZM14.572 19.715V18.4293H12.0006V19.715H14.572ZM17.1434 13.2864H19.7148V12.0007H17.1434V13.2864Z" fill="#FEFEFE"/>
<path fill-rule="evenodd" clip-rule="evenodd" d="M10.8398 4.16142V10.84H4.16127V4.16142H10.8398ZM10.8398 13.1614V19.84H4.16127V13.1614H10.8398ZM13.1613 4.16142H19.8398V10.84H13.1613V4.16142ZM6.7327 6.73285H8.26841V8.26857H6.7327V6.73285ZM15.7327 6.73285H17.2684V8.26857H15.7327V6.73285ZM8.26841 15.7329V17.2686H6.7327V15.7329H8.26841ZM11.8756 11.8757H15.9827V14.4471H19.8398V15.9829H17.2684V17.2686H15.7327V14.6971H14.697V17.2686H11.8756V15.7329H13.1613V14.6971H11.8756V11.8757ZM14.572 14.5721V17.1436H12.0006V15.8579H13.2863V14.5721H14.572ZM13.4113 14.4471H14.447V13.4114H13.4113V14.4471ZM14.572 13.2864V14.5721H15.8577V17.1436H17.1434V15.8579H19.7148V14.5721H15.8577V12.0007H12.0006V14.5721H13.2863V13.2864H14.572ZM19.8398 17.0186V19.84H15.7327V18.3043H18.3041V17.0186H19.8398ZM18.4291 17.1436H19.7148V19.715H15.8577V18.4293H18.4291V17.1436ZM14.697 19.84H11.8756V18.3043H14.697V19.84ZM17.0184 13.4114V11.8757H19.8398V13.4114H17.0184ZM1.58984 2.35785C1.58984 2.15421 1.67074 1.9589 1.81474 1.8149C1.95875 1.6709 2.15405 1.59 2.3577 1.59H6.21484C6.41849 1.59 6.6138 1.6709 6.7578 1.8149C6.9018 1.9589 6.9827 2.15421 6.9827 2.35785C6.9827 2.5615 6.9018 2.75681 6.7578 2.90081C6.6138 3.04481 6.41849 3.12571 6.21484 3.12571H3.12556V6.215C3.12556 6.41864 3.04466 6.61395 2.90066 6.75795C2.75666 6.90195 2.56135 6.98285 2.3577 6.98285C2.15405 6.98285 1.95875 6.90195 1.81474 6.75795C1.67074 6.61395 1.58984 6.41864 1.58984 6.215V2.35785ZM3.00056 6.215C3.00056 6.38549 2.93283 6.54901 2.81227 6.66956C2.69171 6.79012 2.5282 6.85785 2.3577 6.85785C2.1872 6.85785 2.02369 6.79012 1.90313 6.66956C1.78257 6.54901 1.71484 6.38549 1.71484 6.215V2.35785C1.71484 2.18736 1.78257 2.02384 1.90313 1.90328C2.02369 1.78273 2.1872 1.715 2.3577 1.715H6.21484C6.38534 1.715 6.54885 1.78273 6.66941 1.90328C6.78997 2.02384 6.8577 2.18736 6.8577 2.35785C6.8577 2.52835 6.78997 2.69186 6.66941 2.81242C6.54885 2.93298 6.38534 3.00071 6.21484 3.00071H3.00056V6.215ZM17.0184 2.35785C17.0184 2.15421 17.0993 1.9589 17.2433 1.8149C17.3873 1.6709 17.5826 1.59 17.7863 1.59H21.6434C21.8471 1.59 22.0424 1.6709 22.1864 1.8149C22.3304 1.9589 22.4113 2.15421 22.4113 2.35785V6.215C22.4113 6.41864 22.3304 6.61395 22.1864 6.75795C22.0424 6.90195 21.8471 6.98285 21.6434 6.98285C21.4398 6.98285 21.2445 6.90195 21.1005 6.75795C20.9565 6.61395 20.8756 6.41864 20.8756 6.215V3.12571H17.7863C17.5826 3.12571 17.3873 3.04481 17.2433 2.90081C17.0993 2.75681 17.0184 2.5615 17.0184 2.35785ZM17.7863 3.00071C17.6158 3.00071 17.4523 2.93298 17.3317 2.81242C17.2111 2.69186 17.1434 2.52835 17.1434 2.35785C17.1434 2.18736 17.2111 2.02384 17.3317 1.90328C17.4523 1.78273 17.6158 1.715 17.7863 1.715H21.6434C21.8139 1.715 21.9774 1.78273 22.098 1.90328C22.2185 2.02384 22.2863 2.18736 22.2863 2.35785V6.215C22.2863 6.38549 22.2185 6.54901 22.098 6.66956C21.9774 6.79012 21.8139 6.85785 21.6434 6.85785C21.4729 6.85785 21.3094 6.79012 21.1888 6.66956C21.0683 6.54901 21.0006 6.38549 21.0006 6.215V3.00071H17.7863ZM2.3577 17.0186C2.56135 17.0186 2.75666 17.0995 2.90066 17.2435C3.04466 17.3875 3.12556 17.5828 3.12556 17.7864V20.8757H6.21484C6.41849 20.8757 6.6138 20.9566 6.7578 21.1006C6.9018 21.2446 6.9827 21.4399 6.9827 21.6436C6.9827 21.8472 6.9018 22.0425 6.7578 22.1865C6.6138 22.3305 6.41849 22.4114 6.21484 22.4114H2.3577C2.15405 22.4114 1.95875 22.3305 1.81474 22.1865C1.67074 22.0425 1.58984 21.8472 1.58984 21.6436V17.7864C1.58984 17.5828 1.67074 17.3875 1.81474 17.2435C1.95875 17.0995 2.15405 17.0186 2.3577 17.0186ZM6.21484 21.0007C6.38534 21.0007 6.54885 21.0684 6.66941 21.189C6.78997 21.3096 6.8577 21.4731 6.8577 21.6436C6.8577 21.8141 6.78997 21.9776 6.66941 22.0981C6.54885 22.2187 6.38534 22.2864 6.21484 22.2864H2.3577C2.1872 22.2864 2.02369 22.2187 1.90313 22.0981C1.78257 21.9776 1.71484 21.8141 1.71484 21.6436V17.7864C1.71484 17.6159 1.78257 17.4524 1.90313 17.3319C2.02369 17.2113 2.1872 17.1436 2.3577 17.1436C2.5282 17.1436 2.69171 17.2113 2.81227 17.3319C2.93283 17.4524 3.00056 17.6159 3.00056 17.7864V21.0007H6.21484ZM21.6434 17.0186C21.8471 17.0186 22.0424 17.0995 22.1864 17.2435C22.3304 17.3875 22.4113 17.5828 22.4113 17.7864V21.6436C22.4113 21.8472 22.3304 22.0425 22.1864 22.1865C22.0424 22.3305 21.8471 22.4114 21.6434 22.4114H17.7863C17.5826 22.4114 17.3873 22.3305 17.2433 22.1865C17.0993 22.0425 17.0184 21.8472 17.0184 21.6436C17.0184 21.4399 17.0993 21.2446 17.2433 21.1006C17.3873 20.9566 17.5826 20.8757 17.7863 20.8757H20.8756V17.7864C20.8756 17.5828 20.9565 17.3875 21.1005 17.2435C21.2445 17.0995 21.4398 17.0186 21.6434 17.0186ZM21.0006 17.7864C21.0006 17.6159 21.0683 17.4524 21.1888 17.3319C21.3094 17.2113 21.4729 17.1436 21.6434 17.1436C21.8139 17.1436 21.9774 17.2113 22.098 17.3319C22.2185 17.4524 22.2863 17.6159 22.2863 17.7864V21.6436C22.2863 21.8141 22.2185 21.9776 22.098 22.0981C21.9774 22.2187 21.8139 22.2864 21.6434 22.2864H17.7863C17.6158 22.2864 17.4523 22.2187 17.3317 22.0981C17.2111 21.9776 17.1434 21.8141 17.1434 21.6436C17.1434 21.4731 17.2111 21.3096 17.3317 21.189C17.4523 21.0684 17.6158 21.0007 17.7863 21.0007H21.0006V17.7864ZM9.30413 5.69714H5.69699V9.30428H9.30413V5.69714ZM9.30413 14.6971H5.69699V18.3043H9.30413V14.6971ZM18.3041 5.69714H14.697V9.30428H18.3041V5.69714ZM4.28627 4.28642H10.7148V10.715H4.28627V4.28642ZM4.28627 19.715H10.7148V13.2864H4.28627V19.715ZM6.8577 15.8579H8.14341V17.1436H6.8577V15.8579ZM14.572 18.4293V19.715H12.0006V18.4293H14.572ZM19.7148 13.2864H17.1434V12.0007H19.7148V13.2864ZM5.57199 5.57214V9.42928H9.42913V5.57214H5.57199ZM5.57199 14.5721V18.4293H9.42913V14.5721H5.57199ZM14.572 5.57214V9.42928H18.4291V5.57214H14.572ZM13.2863 4.28642V10.715H19.7148V4.28642H13.2863ZM6.8577 6.85785V8.14357H8.14341V6.85785H6.8577ZM15.8577 6.85785V8.14357H17.1434V6.85785H15.8577Z" fill="#FEFEFE"/>
</svg>
