<svg width="32" height="32" viewBox="0 0 32 32" fill="none" xmlns="http://www.w3.org/2000/svg">
<path d="M21.0006 6.00139C21.0006 5.55943 21.1762 5.13556 21.4887 4.82305C21.8012 4.51053 22.2251 4.33496 22.6671 4.33496H25.9999C26.4419 4.33496 26.8657 4.51053 27.1783 4.82305C27.4908 5.13556 27.6664 5.55943 27.6664 6.00139V25.9985H28.4996C28.7205 25.9985 28.9325 26.0863 29.0887 26.2426C29.245 26.3988 29.3328 26.6108 29.3328 26.8317C29.3328 27.0527 29.245 27.2647 29.0887 27.4209C28.9325 27.5772 28.7205 27.665 28.4996 27.665H3.50314C3.28215 27.665 3.07022 27.5772 2.91396 27.4209C2.75771 27.2647 2.66992 27.0527 2.66992 26.8317C2.66992 26.6108 2.75771 26.3988 2.91396 26.2426C3.07022 26.0863 3.28215 25.9985 3.50314 25.9985H4.33635V20.9992C4.33635 20.5573 4.51192 20.1334 4.82444 19.8209C5.13695 19.5084 5.56081 19.3328 6.00278 19.3328H9.33564C9.7776 19.3328 10.2015 19.5084 10.514 19.8209C10.8265 20.1334 11.0021 20.5573 11.0021 20.9992V25.9985H12.6685V14.3335C12.6685 13.8916 12.8441 13.4677 13.1566 13.1552C13.4691 12.8427 13.893 12.6671 14.3349 12.6671H17.6678C18.1097 12.6671 18.5336 12.8427 18.8461 13.1552C19.1586 13.4677 19.3342 13.8916 19.3342 14.3335V25.9985H21.0006V6.00139Z" fill="#37B869"/>
<path opacity="0.7" d="M18 6.85845C18 6.79884 17.9762 6.7273 17.9642 6.66769C17.9523 6.61999 17.9404 6.56038 17.9285 6.51269C17.9046 6.465 17.8688 6.42923 17.845 6.38153C17.8092 6.33384 17.7735 6.27423 17.7258 6.23846C17.7138 6.22654 17.7138 6.21461 17.7019 6.21461C17.6662 6.19077 17.6304 6.17884 17.5946 6.155C17.5469 6.11923 17.4873 6.08346 17.4277 6.05962C17.3681 6.03577 17.3085 6.03577 17.2489 6.02385C17.2012 6.01192 17.1654 6 17.1177 6H13.6243C13.1354 6 12.7301 6.40538 12.7301 6.89422C12.7301 7.38306 13.1354 7.78844 13.6243 7.78844H15.1146C12.277 10.7692 8.70009 12.8676 4.68205 13.8811C4.20513 14.0003 3.90706 14.4891 4.02629 14.9661C4.12167 15.3714 4.49129 15.6457 4.89667 15.6457C4.9682 15.6457 5.03974 15.6338 5.11128 15.6218C9.36778 14.5607 13.1712 12.3549 16.2116 9.23112V10.3876C16.2116 10.8765 16.6169 11.2819 17.1058 11.2819C17.5946 11.2819 18 10.8765 18 10.3876V6.89422C18 6.8823 18 6.87038 18 6.85845Z" fill="#37B869"/>
</svg>
