<svg width="21" height="20" viewBox="0 0 21 20" fill="none" xmlns="http://www.w3.org/2000/svg">
<path fill-rule="evenodd" clip-rule="evenodd" d="M15.5 13.125C14.4645 13.125 13.625 13.9645 13.625 15C13.625 16.0355 14.4645 16.875 15.5 16.875C16.5355 16.875 17.375 16.0355 17.375 15C17.375 13.9645 16.5355 13.125 15.5 13.125ZM12.375 15C12.375 13.2741 13.7741 11.875 15.5 11.875C17.2259 11.875 18.625 13.2741 18.625 15C18.625 16.7259 17.2259 18.125 15.5 18.125C13.7741 18.125 12.375 16.7259 12.375 15Z" fill="#0C85F2"/>
<path fill-rule="evenodd" clip-rule="evenodd" d="M7.441 10.9705C7.59537 10.6618 7.97079 10.5366 8.27952 10.691L13.2795 13.191C13.5883 13.3454 13.7134 13.7208 13.559 14.0295C13.4047 14.3383 13.0292 14.4634 12.7205 14.309L7.72051 11.809C7.41177 11.6547 7.28663 11.2792 7.441 10.9705Z" fill="#0C85F2"/>
<path fill-rule="evenodd" clip-rule="evenodd" d="M5.5 8.125C4.46447 8.125 3.625 8.96447 3.625 10C3.625 11.0355 4.46447 11.875 5.5 11.875C6.53553 11.875 7.375 11.0355 7.375 10C7.375 8.96447 6.53553 8.125 5.5 8.125ZM2.375 10C2.375 8.27411 3.77411 6.875 5.5 6.875C7.22589 6.875 8.625 8.27411 8.625 10C8.625 11.7259 7.22589 13.125 5.5 13.125C3.77411 13.125 2.375 11.7259 2.375 10Z" fill="#0C85F2"/>
<path fill-rule="evenodd" clip-rule="evenodd" d="M13.559 5.97051C13.7134 6.27924 13.5883 6.65466 13.2795 6.80903L8.27952 9.30903C7.97079 9.4634 7.59537 9.33826 7.441 9.02952C7.28663 8.72079 7.41177 8.34537 7.72051 8.191L12.7205 5.691C13.0292 5.53663 13.4047 5.66177 13.559 5.97051Z" fill="#0C85F2"/>
<path fill-rule="evenodd" clip-rule="evenodd" d="M15.5 3.125C14.4645 3.125 13.625 3.96447 13.625 5C13.625 6.03553 14.4645 6.875 15.5 6.875C16.5355 6.875 17.375 6.03553 17.375 5C17.375 3.96447 16.5355 3.125 15.5 3.125ZM12.375 5C12.375 3.27411 13.7741 1.875 15.5 1.875C17.2259 1.875 18.625 3.27411 18.625 5C18.625 6.72589 17.2259 8.125 15.5 8.125C13.7741 8.125 12.375 6.72589 12.375 5Z" fill="#0C85F2"/>
</svg>
