<svg
  width="24"
  height="24"
  viewBox="0 0 24 24"
  fill="none"
  xmlns="http://www.w3.org/2000/svg">
  <path
    d="M2.78033 16.4016L5.35162 18.9716L5.36062 18.9806L5.36174 18.9817C5.50605 19.1224 5.70011 19.2004 5.90165 19.1987C6.10314 19.197 6.2959 19.1156 6.43776 18.9725L9.00861 16.4017C9.08 16.3304 9.13664 16.2457 9.17531 16.1526C9.21398 16.0594 9.23392 15.9595 9.23399 15.8586C9.23407 15.7578 9.21427 15.6578 9.17573 15.5646C9.13719 15.4714 9.08066 15.3867 9.00938 15.3153C8.9381 15.2439 8.85345 15.1873 8.76028 15.1486C8.66711 15.1099 8.56723 15.09 8.46635 15.0899C8.36547 15.0898 8.26556 15.1096 8.17234 15.1482C8.07911 15.1867 7.99428 15.2433 7.9229 15.3146L6.66296 16.5757V5.57282C6.66296 5.36918 6.58207 5.17388 6.43807 5.02988C6.29407 4.88589 6.09877 4.80499 5.89513 4.80499C5.69149 4.80499 5.49619 4.88589 5.3522 5.02988C5.2082 5.17388 5.1273 5.36918 5.1273 5.57282V16.5757L3.86733 15.3146C3.72318 15.1704 3.52767 15.0894 3.32382 15.0894C3.11996 15.0894 2.92445 15.1704 2.78031 15.3146C2.63616 15.4587 2.55518 15.6542 2.55518 15.8581C2.55518 16.0619 2.63618 16.2575 2.78033 16.4016Z"
    fill="#000"
  />
  <path
    d="M11.1377 6.31554C10.9937 6.45954 10.9128 6.65484 10.9128 6.85848C10.9128 7.06212 10.9937 7.25742 11.1377 7.40142C11.2817 7.54541 11.477 7.62631 11.6806 7.62631H20.6802C20.8838 7.62631 21.0791 7.54541 21.2231 7.40142C21.3671 7.25742 21.448 7.06212 21.448 6.85848C21.448 6.65484 21.3671 6.45954 21.2231 6.31554C21.0791 6.17155 20.8838 6.09065 20.6802 6.09065H11.6806C11.477 6.09065 11.2817 6.17155 11.1377 6.31554Z"
    fill="#000"
  />
  <path
    d="M11.6806 9.94763C11.477 9.94763 11.2817 10.0285 11.1377 10.1725C10.9937 10.3165 10.9128 10.5118 10.9128 10.7155C10.9128 10.9191 10.9937 11.1144 11.1377 11.2584C11.2817 11.4024 11.477 11.4833 11.6806 11.4833H18.1089C18.3125 11.4833 18.5078 11.4024 18.6518 11.2584C18.7958 11.1144 18.8767 10.9191 18.8767 10.7155C18.8767 10.5118 18.7958 10.3165 18.6518 10.1725C18.5078 10.0285 18.3125 9.94763 18.1089 9.94763H11.6806Z"
    fill="#000"
  />
  <path
    d="M11.6806 13.8046C11.477 13.8046 11.2817 13.8855 11.1377 14.0295C10.9937 14.1735 10.9128 14.3688 10.9128 14.5724C10.9128 14.7761 10.9937 14.9714 11.1377 15.1154C11.2817 15.2594 11.477 15.3403 11.6806 15.3403H15.5376C15.7412 15.3403 15.9365 15.2594 16.0805 15.1154C16.2245 14.9714 16.3054 14.7761 16.3054 14.5724C16.3054 14.3688 16.2245 14.1735 16.0805 14.0295C15.9365 13.8855 15.7412 13.8046 15.5376 13.8046H11.6806Z"
    fill="#000"
  />
  <path
    d="M11.6806 17.6616C11.477 17.6616 11.2817 17.7425 11.1377 17.8865C10.9937 18.0305 10.9128 18.2258 10.9128 18.4294C10.9128 18.633 10.9937 18.8283 11.1377 18.9723C11.2817 19.1163 11.477 19.1972 11.6806 19.1972H12.9663C13.1699 19.1972 13.3652 19.1163 13.5092 18.9723C13.6532 18.8283 13.7341 18.633 13.7341 18.4294C13.7341 18.2258 13.6532 18.0305 13.5092 17.8865C13.3652 17.7425 13.1699 17.6616 12.9663 17.6616H11.6806Z"
    fill="#000"
  />
</svg>
