<svg width="24" height="24" viewBox="0 0 24 24" fill="none" xmlns="http://www.w3.org/2000/svg">
<path fill-rule="evenodd" clip-rule="evenodd" d="M3.52145 3.52145C3.61521 3.42768 3.74239 3.375 3.875 3.375H7.625C7.82391 3.375 8.01468 3.29598 8.15533 3.15533C8.29598 3.01468 8.375 2.82391 8.375 2.625C8.375 2.42609 8.29598 2.23532 8.15533 2.09467C8.01468 1.95402 7.82391 1.875 7.625 1.875H3.875C3.34457 1.875 2.83586 2.08571 2.46079 2.46079C2.08571 2.83586 1.875 3.34457 1.875 3.875V7.625C1.875 7.82391 1.95402 8.01468 2.09467 8.15533C2.23532 8.29598 2.42609 8.375 2.625 8.375C2.82391 8.375 3.01468 8.29598 3.15533 8.15533C3.29598 8.01468 3.375 7.82391 3.375 7.625V3.875C3.375 3.74239 3.42768 3.61521 3.52145 3.52145ZM15.8447 2.09467C15.704 2.23532 15.625 2.42609 15.625 2.625C15.625 2.82391 15.704 3.01468 15.8447 3.15533C15.9853 3.29598 16.1761 3.375 16.375 3.375H20.125C20.2576 3.375 20.3848 3.42768 20.4786 3.52145C20.5723 3.61521 20.625 3.74239 20.625 3.875V7.625C20.625 7.82391 20.704 8.01468 20.8447 8.15533C20.9853 8.29598 21.1761 8.375 21.375 8.375C21.5739 8.375 21.7647 8.29598 21.9053 8.15533C22.046 8.01468 22.125 7.82391 22.125 7.625V3.875C22.125 3.34457 21.9143 2.83586 21.5392 2.46079C21.1641 2.08571 20.6554 1.875 20.125 1.875H16.375C16.1761 1.875 15.9853 1.95402 15.8447 2.09467ZM3.15533 15.8447C3.01468 15.704 2.82391 15.625 2.625 15.625C2.42609 15.625 2.23532 15.704 2.09467 15.8447C1.95402 15.9853 1.875 16.1761 1.875 16.375V20.125C1.875 20.6554 2.08571 21.1641 2.46079 21.5392C2.83586 21.9143 3.34457 22.125 3.875 22.125H7.625C7.82391 22.125 8.01468 22.046 8.15533 21.9053C8.29598 21.7647 8.375 21.5739 8.375 21.375C8.375 21.1761 8.29598 20.9853 8.15533 20.8447C8.01468 20.704 7.82391 20.625 7.625 20.625H3.875C3.74239 20.625 3.61521 20.5723 3.52145 20.4786C3.42768 20.3848 3.375 20.2576 3.375 20.125V16.375C3.375 16.1761 3.29598 15.9853 3.15533 15.8447ZM21.9053 15.8447C21.7647 15.704 21.5739 15.625 21.375 15.625C21.1761 15.625 20.9853 15.704 20.8447 15.8447C20.704 15.9853 20.625 16.1761 20.625 16.375V20.125C20.625 20.2576 20.5723 20.3848 20.4786 20.4786C20.3848 20.5723 20.2576 20.625 20.125 20.625H16.375C16.1761 20.625 15.9853 20.704 15.8447 20.8447C15.704 20.9853 15.625 21.1761 15.625 21.375C15.625 21.5739 15.704 21.7647 15.8447 21.9053C15.9853 22.046 16.1761 22.125 16.375 22.125H20.125C20.6554 22.125 21.1641 21.9143 21.5392 21.5392C21.9143 21.1641 22.125 20.6554 22.125 20.125V16.375C22.125 16.1761 22.046 15.9853 21.9053 15.8447ZM5.84467 7.09467C5.70402 7.23532 5.625 7.42609 5.625 7.625V16.375C5.625 16.5739 5.70402 16.7647 5.84467 16.9053C5.98532 17.046 6.17609 17.125 6.375 17.125C6.57391 17.125 6.76468 17.046 6.90533 16.9053C7.04598 16.7647 7.125 16.5739 7.125 16.375V7.625C7.125 7.42609 7.04598 7.23532 6.90533 7.09467C6.76468 6.95402 6.57391 6.875 6.375 6.875C6.17609 6.875 5.98532 6.95402 5.84467 7.09467ZM8.34467 7.09467C8.20402 7.23532 8.125 7.42609 8.125 7.625V16.375C8.125 16.5739 8.20402 16.7647 8.34467 16.9053C8.48532 17.046 8.67609 17.125 8.875 17.125C9.07391 17.125 9.26468 17.046 9.40533 16.9053C9.54598 16.7647 9.625 16.5739 9.625 16.375V7.625C9.625 7.42609 9.54598 7.23532 9.40533 7.09467C9.26468 6.95402 9.07391 6.875 8.875 6.875C8.67609 6.875 8.48532 6.95402 8.34467 7.09467ZM10.8447 7.09467C10.704 7.23532 10.625 7.42609 10.625 7.625V16.375C10.625 16.5739 10.704 16.7647 10.8447 16.9053C10.9853 17.046 11.1761 17.125 11.375 17.125C11.5739 17.125 11.7647 17.046 11.9053 16.9053C12.046 16.7647 12.125 16.5739 12.125 16.375V7.625C12.125 7.42609 12.046 7.23532 11.9053 7.09467C11.7647 6.95402 11.5739 6.875 11.375 6.875C11.1761 6.875 10.9853 6.95402 10.8447 7.09467ZM13.3447 7.09467C13.204 7.23532 13.125 7.42609 13.125 7.625V16.375C13.125 16.5739 13.204 16.7647 13.3447 16.9053C13.4853 17.046 13.6761 17.125 13.875 17.125H15.125C15.3239 17.125 15.5147 17.046 15.6553 16.9053C15.796 16.7647 15.875 16.5739 15.875 16.375V7.625C15.875 7.42609 15.796 7.23532 15.6553 7.09467C15.5147 6.95402 15.3239 6.875 15.125 6.875H13.875C13.6761 6.875 13.4853 6.95402 13.3447 7.09467ZM17.0947 7.09467C16.954 7.23532 16.875 7.42609 16.875 7.625V16.375C16.875 16.5739 16.954 16.7647 17.0947 16.9053C17.2353 17.046 17.4261 17.125 17.625 17.125C17.8239 17.125 18.0147 17.046 18.1553 16.9053C18.296 16.7647 18.375 16.5739 18.375 16.375V7.625C18.375 7.42609 18.296 7.23532 18.1553 7.09467C18.0147 6.95402 17.8239 6.875 17.625 6.875C17.4261 6.875 17.2353 6.95402 17.0947 7.09467Z" fill="#000"/>
</svg>
