<svg width="32" height="32" viewBox="0 0 32 32" fill="none" xmlns="http://www.w3.org/2000/svg">
<path d="M17.3334 7.20166C17.3334 7.06833 17.3334 7.06833 17.3334 6.935H5.06675C3.73341 6.935 2.66675 8.00166 2.66675 9.335V12.0017C2.66675 12.535 3.06675 13.0683 3.73341 13.0683C5.33341 12.935 6.66675 14.2683 6.66675 16.0017C6.66675 17.735 5.33341 18.935 3.73341 18.935C3.06675 18.935 2.66675 19.335 2.66675 20.0017V22.6683C2.66675 24.0017 3.73341 25.0683 5.06675 25.0683H17.3334C17.3334 24.935 17.3334 24.935 17.3334 24.8017V7.20166Z" fill="#8F61F2"/>
<path opacity="0.7" d="M27.7334 13.0685C28.2667 13.0685 28.8 12.6685 28.8 12.0018V9.33513C28.8 8.00179 27.7334 6.93513 26.4 6.93513H19.3334C19.3334 7.06846 19.3334 7.06846 19.3334 7.20179V24.8018C19.3334 24.9351 19.3334 24.9351 19.3334 25.0685H26.4C27.7334 25.0685 28.8 24.0018 28.8 22.6685V20.0018C28.8 19.4685 28.4 18.9351 27.7334 18.9351C26.1334 18.9351 24.8 17.6018 24.8 16.0018C24.8 14.4018 26 13.0685 27.7334 13.0685Z" fill="#8F61F2"/>
</svg>
