<svg width="12" height="12" viewBox="0 0 12 12" fill="none" xmlns="http://www.w3.org/2000/svg">
<path d="M6.14595 0.300415C3.07141 0.300415 0.577881 2.79683 0.577881 5.87494C0.577881 8.95305 3.07141 11.4495 6.14595 11.4495C9.2205 11.4495 11.714 8.95305 11.714 5.87494C11.7382 2.79683 9.24471 0.300415 6.14595 0.300415ZM5.68598 7.62003C5.66178 7.64426 5.61336 7.69272 5.56494 7.69272C5.51652 7.71696 5.4681 7.71698 5.44389 7.71698C5.34706 7.71698 5.25022 7.69274 5.17759 7.62003C5.10497 7.54731 5.08076 7.4746 5.08076 7.37765C5.08076 7.28071 5.10497 7.18376 5.17759 7.13528C5.2018 7.11105 5.25022 7.06256 5.29864 7.06256C5.41968 7.01409 5.58915 7.03834 5.68598 7.13528C5.75861 7.20799 5.78282 7.30494 5.78282 7.37765C5.80703 7.4746 5.75861 7.57155 5.68598 7.62003ZM5.10497 5.94766C5.10497 5.85071 5.12918 5.75377 5.2018 5.70529C5.22601 5.68105 5.27443 5.63257 5.32285 5.63257C5.44389 5.58409 5.61336 5.60834 5.71019 5.70529C5.78282 5.778 5.80703 5.87495 5.80703 5.94766C5.80703 6.04461 5.78282 6.14156 5.71019 6.19003C5.63756 6.26274 5.54073 6.28699 5.4681 6.28699C5.37127 6.28699 5.27443 6.26274 5.2018 6.19003C5.12918 6.14156 5.10497 6.04461 5.10497 5.94766ZM7.11432 7.62003C7.04169 7.69274 6.94485 7.71698 6.87223 7.71698C6.77539 7.71698 6.67855 7.69274 6.63014 7.62003C6.55751 7.54731 6.5333 7.4746 6.5333 7.37765C6.5333 7.28071 6.55751 7.18376 6.63014 7.13528C6.72697 7.03834 6.87223 7.01409 7.01748 7.06256C7.0659 7.0868 7.09011 7.11105 7.13853 7.13528C7.21115 7.20799 7.23536 7.30494 7.23536 7.37765C7.21115 7.4746 7.18694 7.57155 7.11432 7.62003ZM7.11432 6.19003C7.04169 6.26274 6.94485 6.28699 6.87223 6.28699C6.77539 6.28699 6.67855 6.26274 6.63014 6.19003C6.55751 6.11732 6.5333 6.04461 6.5333 5.94766C6.5333 5.85071 6.58172 5.75377 6.63014 5.70529C6.75118 5.58411 6.99327 5.58411 7.13853 5.70529C7.21115 5.778 7.23536 5.87495 7.23536 5.94766C7.23536 6.04461 7.18694 6.14156 7.11432 6.19003ZM9.14787 8.37137C9.14787 8.56526 9.00262 8.71069 8.80895 8.71069C8.61527 8.71069 8.47002 8.56526 8.47002 8.37137V4.92972L6.17017 2.77261L3.87031 4.92972V8.37137C3.87031 8.56526 3.72505 8.71069 3.53138 8.71069C3.33771 8.71069 3.19246 8.56526 3.19246 8.37137V4.78427C3.19246 4.68732 3.24087 4.59038 3.3135 4.51767L5.95228 2.02127C6.09754 1.90008 6.29121 1.90008 6.43646 2.02127L7.45324 2.96649V2.53024C7.45324 2.33635 7.5985 2.19092 7.79217 2.19092C7.98584 2.19092 8.13109 2.33635 8.13109 2.53024V3.62091L9.07525 4.51767C9.14787 4.59038 9.19629 4.68732 9.19629 4.78427V8.37137H9.14787Z" fill="#000"/>
</svg>
