<svg width="25" height="24" viewBox="0 0 25 24" fill="none" xmlns="http://www.w3.org/2000/svg">
<path fill-rule="evenodd" clip-rule="evenodd" d="M5.5 21C5.5 20.5858 5.83579 20.25 6.25 20.25H18.25C18.6642 20.25 19 20.5858 19 21C19 21.4142 18.6642 21.75 18.25 21.75H6.25C5.83579 21.75 5.5 21.4142 5.5 21Z" fill="#00AD4F"/>
<path fill-rule="evenodd" clip-rule="evenodd" d="M12.25 2.25C12.6642 2.25 13 2.58579 13 3L13 17C13 17.4142 12.6642 17.75 12.25 17.75C11.8358 17.75 11.5 17.4142 11.5 17L11.5 3C11.5 2.58579 11.8358 2.25 12.25 2.25Z" fill="#00AD4F"/>
<path fill-rule="evenodd" clip-rule="evenodd" d="M6.71967 11.4697C7.01256 11.1768 7.48744 11.1768 7.78033 11.4697L12.25 15.9393L16.7197 11.4697C17.0126 11.1768 17.4874 11.1768 17.7803 11.4697C18.0732 11.7626 18.0732 12.2374 17.7803 12.5303L12.7803 17.5303C12.6397 17.671 12.4489 17.75 12.25 17.75C12.0511 17.75 11.8603 17.671 11.7197 17.5303L6.71967 12.5303C6.42678 12.2374 6.42678 11.7626 6.71967 11.4697Z" fill="#00AD4F"/>
</svg>
