<svg width="12" height="12" viewBox="0 0 12 12" fill="none" xmlns="http://www.w3.org/2000/svg">
<path d="M6.14602 2.36368C5.22607 2.36368 4.4998 3.11504 4.4998 4.01181C4.4998 5.00553 5.51658 6.21738 6.14602 6.8233C6.75124 6.1689 7.79223 4.88434 7.79223 4.01181C7.81644 3.0908 7.06596 2.36368 6.14602 2.36368ZM6.41232 4.25418C6.33969 4.32689 6.26706 4.35114 6.17023 4.35114C6.07339 4.35114 5.97655 4.32689 5.92814 4.25418C5.85551 4.18147 5.8313 4.08452 5.8313 4.01181C5.8313 3.96334 5.8313 3.91486 5.85551 3.89062C5.87972 3.84215 5.90393 3.79368 5.92814 3.76944C6.04918 3.64825 6.29127 3.64825 6.41232 3.76944C6.43653 3.79368 6.48494 3.84215 6.48494 3.89062C6.50915 3.91486 6.50915 3.98757 6.50915 4.01181C6.50915 4.08452 6.48494 4.18147 6.41232 4.25418ZM6.14602 0.133881C3.07147 0.133881 0.577942 2.6303 0.577942 5.7084C0.577942 8.78651 3.07147 11.2829 6.14602 11.2829C9.22056 11.2829 11.7141 8.78651 11.7141 5.7084C11.7383 2.6303 9.24477 0.133881 6.14602 0.133881ZM7.42909 9.44092H4.91136C4.71769 9.44092 4.57243 9.29549 4.57243 9.10159C4.57243 8.9077 4.71769 8.76227 4.91136 8.76227H7.42909C7.62277 8.76227 7.76802 8.9077 7.76802 9.10159C7.76802 9.29549 7.62277 9.44092 7.42909 9.44092ZM6.41232 7.57465C6.33969 7.64736 6.26706 7.6716 6.17023 7.6716C6.0976 7.6716 6.00076 7.64736 5.92814 7.57465C5.8313 7.50194 3.82195 5.7084 3.82195 4.01181C3.82195 2.72725 4.88715 1.66083 6.17023 1.66083C7.4533 1.66083 8.5185 2.72725 8.5185 4.01181C8.5185 5.49027 6.60599 7.35651 6.41232 7.57465Z" fill="#000"/>
</svg>
