<svg width="12" height="12" viewBox="0 0 12 12" fill="none" xmlns="http://www.w3.org/2000/svg">
<path d="M6.09757 0.221924C2.95039 0.221924 0.408447 2.76683 0.408447 5.91766C0.408447 9.0685 2.95039 11.6134 6.09757 11.6134C9.24474 11.6134 11.7867 9.0685 11.7867 5.91766C11.7867 2.76683 9.24474 0.221924 6.09757 0.221924ZM9.36578 8.4868C8.93002 8.92307 8.37321 9.14119 7.76799 9.14119C7.16276 9.14119 6.58175 8.89883 6.17019 8.4868L3.84613 6.16004C2.95039 5.26326 2.95039 3.83325 3.84613 2.96071C4.20926 2.59715 4.79028 2.59715 5.15342 2.96071L5.9281 3.73632C6.29124 4.09987 6.29124 4.68154 5.9281 5.0451L5.80706 5.16629L7.21118 6.57206L7.33223 6.45087C7.69536 6.08731 8.27638 6.08731 8.63951 6.45087L9.4142 7.22645C9.72892 7.54153 9.72892 8.12324 9.36578 8.4868ZM8.85739 7.68696C8.93002 7.75967 8.93002 7.88088 8.85739 7.97782C8.27638 8.55952 7.2596 8.55952 6.65437 7.97782L4.33031 5.65103C3.72508 5.0451 3.72508 4.05138 4.33031 3.44545C4.37873 3.39698 4.42715 3.39699 4.47556 3.39699C4.52398 3.39699 4.5724 3.42122 4.62081 3.44545L5.39551 4.22106C5.44392 4.26953 5.44392 4.318 5.44392 4.36648C5.44392 4.41495 5.41972 4.46342 5.39551 4.51189L5.03237 4.87545C4.88712 5.02088 4.88712 5.239 5.03237 5.38443L6.94488 7.29917C7.09014 7.44459 7.30802 7.44459 7.45327 7.29917L7.81641 6.93561C7.88904 6.8629 8.03429 6.8629 8.10692 6.93561L8.85739 7.68696Z" fill="#000"/>
</svg>
