<svg width="25" height="24" viewBox="0 0 25 24" fill="none" xmlns="http://www.w3.org/2000/svg">
<path fill-rule="evenodd" clip-rule="evenodd" d="M18.75 15.75C17.5074 15.75 16.5 16.7574 16.5 18C16.5 19.2426 17.5074 20.25 18.75 20.25C19.9926 20.25 21 19.2426 21 18C21 16.7574 19.9926 15.75 18.75 15.75ZM15 18C15 15.9289 16.6789 14.25 18.75 14.25C20.8211 14.25 22.5 15.9289 22.5 18C22.5 20.0711 20.8211 21.75 18.75 21.75C16.6789 21.75 15 20.0711 15 18Z" fill="#FEFEFE"/>
<path fill-rule="evenodd" clip-rule="evenodd" d="M9.07916 13.1646C9.2644 12.7941 9.71491 12.6439 10.0854 12.8292L16.0854 15.8292C16.4559 16.0144 16.606 16.4649 16.4208 16.8354C16.2356 17.2059 15.7851 17.3561 15.4146 17.1708L9.41457 14.1708C9.04409 13.9856 8.89392 13.5351 9.07916 13.1646Z" fill="#FEFEFE"/>
<path fill-rule="evenodd" clip-rule="evenodd" d="M6.75 9.75C5.50736 9.75 4.5 10.7574 4.5 12C4.5 13.2426 5.50736 14.25 6.75 14.25C7.99264 14.25 9 13.2426 9 12C9 10.7574 7.99264 9.75 6.75 9.75ZM3 12C3 9.92893 4.67893 8.25 6.75 8.25C8.82107 8.25 10.5 9.92893 10.5 12C10.5 14.0711 8.82107 15.75 6.75 15.75C4.67893 15.75 3 14.0711 3 12Z" fill="#FEFEFE"/>
<path fill-rule="evenodd" clip-rule="evenodd" d="M16.4208 7.16459C16.606 7.53507 16.4559 7.98558 16.0854 8.17082L10.0854 11.1708C9.71491 11.3561 9.2644 11.2059 9.07916 10.8354C8.89392 10.4649 9.04409 10.0144 9.41457 9.82918L15.4146 6.82918C15.7851 6.64394 16.2356 6.79411 16.4208 7.16459Z" fill="#FEFEFE"/>
<path fill-rule="evenodd" clip-rule="evenodd" d="M18.75 3.75C17.5074 3.75 16.5 4.75736 16.5 6C16.5 7.24264 17.5074 8.25 18.75 8.25C19.9926 8.25 21 7.24264 21 6C21 4.75736 19.9926 3.75 18.75 3.75ZM15 6C15 3.92893 16.6789 2.25 18.75 2.25C20.8211 2.25 22.5 3.92893 22.5 6C22.5 8.07107 20.8211 9.75 18.75 9.75C16.6789 9.75 15 8.07107 15 6Z" fill="#FEFEFE"/>
</svg>
