<svg width="12" height="13" viewBox="0 0 12 13" fill="none" xmlns="http://www.w3.org/2000/svg">
<path d="M7.16277 6.77861C7.09014 8.54791 6.53334 9.54163 6.24283 9.54163C5.95232 9.54163 5.3713 8.57215 5.29868 6.77861H7.16277ZM4.59662 6.0515C4.62083 5.08202 4.8145 4.16101 5.12921 3.50661C4.06402 3.91864 3.28933 4.88812 3.16828 6.0515H4.59662ZM7.88904 6.0515H9.31738C9.17212 4.88812 8.42164 3.91864 7.35644 3.50661C7.67116 4.16101 7.84062 5.10626 7.88904 6.0515ZM6.24283 3.31271C5.95232 3.31271 5.3713 4.28219 5.29868 6.07573H7.16277C7.09014 4.28219 6.53334 3.31271 6.24283 3.31271ZM11.7867 6.51201C11.7867 9.61434 9.26896 12.135 6.1702 12.135C3.07145 12.135 0.553711 9.61434 0.553711 6.51201C0.553711 3.40967 3.07145 0.889008 6.1702 0.889008C9.26896 0.889008 11.7867 3.40967 11.7867 6.51201ZM10.0436 6.41505C10.0436 4.30644 8.3248 2.5856 6.21862 2.5856C4.11244 2.5856 2.39359 4.30644 2.39359 6.41505C2.39359 8.52367 4.11244 10.2445 6.21862 10.2445C8.34901 10.2445 10.0436 8.52367 10.0436 6.41505ZM4.59662 6.77861H3.16828C3.31354 7.94199 4.06402 8.91146 5.12921 9.32349C4.8145 8.64486 4.62083 7.72385 4.59662 6.77861ZM7.88904 6.77861C7.86483 7.74809 7.67116 8.66909 7.35644 9.32349C8.42164 8.91146 9.19633 7.94199 9.31738 6.77861H7.88904Z" fill="#000"/>
</svg>
