<svg width="220" height="160" viewBox="0 0 550 448" fill="none" xmlns="http://www.w3.org/2000/svg">
<path d="M23.1922 447.597V435.872H31.7373V447.597H60.0433V424.147H75.906V431.704H66.5645V447.597H78.6965V435.375H83.3613V447.597H550V443.932H86.1577V431.704H78.6965V420.477H57.2349V443.932H34.5278V435.872H45.9053V417.309H34.5278V402.41H23.1503V387.518H9.01818V402.41H4.04201V372.661H21.9466V344.517H13.3776V334.762H4.04201V0H1.24554V338.433H10.5751V344.547H1.24554V360.439H13.3776V348.212H19.1621V368.996H1.24554V406.081H9.03016V417.207H0V447.585L23.1922 447.597ZM75.888 443.932H69.3609V435.375H75.894L75.888 443.932ZM10.5751 356.769H4.04201V348.212H10.5751V356.769ZM11.8206 420.974H20.3897V432.207H11.8206V420.974ZM23.1982 420.974H31.7373V432.207H23.1922L23.1982 420.974ZM43.1388 420.974V432.207H34.5577V420.974H43.1388ZM31.7373 406.081V417.309H23.1922V406.081H31.7373ZM11.7967 391.183H20.3897V402.41H11.8206L11.7967 391.183ZM11.7967 406.081H20.3897V417.207H11.8206L11.7967 406.081ZM2.79647 420.884H9.01818V435.854H20.3957V443.914H2.79647V420.884Z" fill="#B88E5E"/>
</svg>
