<svg width="139" height="182" viewBox="0 0 348 472" fill="none" xmlns="http://www.w3.org/2000/svg">
<path d="M318.352 0V14.9845H307.439V0H271.272V29.9689H250.999V20.3109H262.922V0H247.417V15.6273H241.456V0H0V4.6836H237.874V20.3109H247.417V34.6602H274.846V4.6836H303.866V14.9845H289.287V38.7086H303.827V57.7491H318.368V76.7896H336.475V57.7491H342.834V95.769H319.96V131.738H330.911V144.235H342.834V471.315H346.416V139.521H334.485V131.707H346.416V111.396H330.911V127.039H323.534V100.483H346.416V53.0655H336.467V38.831H348V0H318.352ZM251.007 4.6836H259.356V15.6273H251.014L251.007 4.6836ZM334.477 116.08H342.827V127.039H334.477V116.08ZM332.893 34.025H321.934V19.6757H332.893V34.025ZM318.352 34.025H307.401V19.6757H318.352V34.025ZM292.868 34.025V19.6757H303.82V34.025H292.868ZM307.409 53.0655V38.7086H318.36V53.0655H307.409ZM332.893 72.0984H321.934V57.7491H332.893V72.0984ZM332.893 53.0655H321.934V38.831H332.893V53.0655ZM344.418 34.1398H336.467V15.0074H321.926V4.6836H344.411L344.418 34.1398Z" fill="#B88E5E"/>
</svg>
