<svg width="140" height="182" viewBox="0 0 345 472" fill="none" xmlns="http://www.w3.org/2000/svg">
<path d="M315.352 0V14.9845H304.439V0H268.272V29.9689H247.999V20.3109H259.922V0H244.417V15.6273H238.456V0H0V4.6836H234.874V20.3109H244.417V34.6602H271.846V4.6836H300.866V14.9845H286.287V38.7086H300.827V57.7491H315.368V76.7896H333.475V57.7491H339.834V95.769H316.96V131.738H327.911V144.235H339.834V471.315H343.416V139.521H331.485V131.707H343.416V111.396H327.911V127.039H320.534V100.483H343.416V53.0655H333.467V38.831H345V0H315.352ZM248.007 4.6836H256.356V15.6273H248.014L248.007 4.6836ZM331.477 116.08H339.827V127.039H331.477V116.08ZM329.893 34.025H318.934V19.6757H329.893V34.025ZM315.352 34.025H304.401V19.6757H315.352V34.025ZM289.868 34.025V19.6757H300.82V34.025H289.868ZM304.409 53.0655V38.7086H315.36V53.0655H304.409ZM329.893 72.0984H318.934V57.7491H329.893V72.0984ZM329.893 53.0655H318.934V38.831H329.893V53.0655ZM341.418 34.1398H333.467V15.0074H318.926V4.6836H341.411L341.418 34.1398Z" fill="#B88E5E"/>
</svg>
