<svg width="130" height="182" viewBox="0 0 326 472" fill="none" xmlns="http://www.w3.org/2000/svg">
<path d="M296.352 0V14.9845H285.439V0H249.272V29.9689H228.999V20.3109H240.922V0H225.417V15.6273H219.456V0H0V4.6836H215.874V20.3109H225.417V34.6602H252.846V4.6836H281.866V14.9845H267.287V38.7086H281.827V57.7491H296.368V76.7896H314.475V57.7491H320.834V95.769H297.96V131.738H308.911V144.235H320.834V471.315H324.416V139.521H312.485V131.707H324.416V111.396H308.911V127.039H301.534V100.483H324.416V53.0655H314.467V38.831H326V0H296.352ZM229.007 4.6836H237.356V15.6273H229.014L229.007 4.6836ZM312.477 116.08H320.827V127.039H312.477V116.08ZM310.893 34.025H299.934V19.6757H310.893V34.025ZM296.352 34.025H285.401V19.6757H296.352V34.025ZM270.868 34.025V19.6757H281.82V34.025H270.868ZM285.409 53.0655V38.7086H296.36V53.0655H285.409ZM310.893 72.0984H299.934V57.7491H310.893V72.0984ZM310.893 53.0655H299.934V38.831H310.893V53.0655ZM322.418 34.1398H314.467V15.0074H299.926V4.6836H322.411L322.418 34.1398Z" fill="#B88E5E"/>
</svg>
