<svg width="159" height="182" viewBox="0 0 394 472" fill="none" xmlns="http://www.w3.org/2000/svg">
<path d="M364.352 0V14.9845H353.439V0H317.272V29.9689H296.999V20.3109H308.922V0H293.417V15.6273H287.456V0H0V4.6836H283.874V20.3109H293.417V34.6602H320.846V4.6836H349.866V14.9845H335.287V38.7086H349.827V57.7491H364.368V76.7896H382.475V57.7491H388.834V95.769H365.96V131.738H376.911V144.235H388.834V471.315H392.416V139.521H380.485V131.707H392.416V111.396H376.911V127.039H369.534V100.483H392.416V53.0655H382.467V38.831H394V0H364.352ZM297.007 4.6836H305.356V15.6273H297.014L297.007 4.6836ZM380.477 116.08H388.827V127.039H380.477V116.08ZM378.893 34.025H367.934V19.6757H378.893V34.025ZM364.352 34.025H353.401V19.6757H364.352V34.025ZM338.868 34.025V19.6757H349.82V34.025H338.868ZM353.409 53.0655V38.7086H364.36V53.0655H353.409ZM378.893 72.0984H367.934V57.7491H378.893V72.0984ZM378.893 53.0655H367.934V38.831H378.893V53.0655ZM390.418 34.1398H382.467V15.0074H367.926V4.6836H390.411L390.418 34.1398Z" fill="#B88E5E"/>
</svg>
