<svg width="167" height="192" viewBox="0 0 440 472" fill="none" xmlns="http://www.w3.org/2000/svg">
<path d="M410.352 0V14.9845H399.439V0H363.272V29.9689H342.999V20.3109H354.922V0H339.417V15.6273H333.456V0H0V4.6836H329.874V20.3109H339.417V34.6602H366.846V4.6836H395.866V14.9845H381.287V38.7086H395.827V57.7491H410.368V76.7896H428.475V57.7491H434.834V95.769H411.96V131.738H422.911V144.235H434.834V471.315H438.416V139.521H426.485V131.707H438.416V111.396H422.911V127.039H415.534V100.483H438.416V53.0655H428.467V38.831H440V0H410.352ZM343.007 4.6836H351.356V15.6273H343.014L343.007 4.6836ZM426.477 116.08H434.827V127.039H426.477V116.08ZM424.893 34.025H413.934V19.6757H424.893V34.025ZM410.352 34.025H399.401V19.6757H410.352V34.025ZM384.868 34.025V19.6757H395.82V34.025H384.868ZM399.409 53.0655V38.7086H410.36V53.0655H399.409ZM424.893 72.0984H413.934V57.7491H424.893V72.0984ZM424.893 53.0655H413.934V38.831H424.893V53.0655ZM436.418 34.1398H428.467V15.0074H413.926V4.6836H436.411L436.418 34.1398Z" fill="#B88E5E"/>
</svg>
