<svg width="144" height="182" viewBox="0 0 362 472" fill="none" xmlns="http://www.w3.org/2000/svg">
<path d="M332.352 0V14.9845H321.439V0H285.272V29.9689H264.999V20.3109H276.922V0H261.417V15.6273H255.456V0H0V4.6836H251.874V20.3109H261.417V34.6602H288.846V4.6836H317.866V14.9845H303.287V38.7086H317.827V57.7491H332.368V76.7896H350.475V57.7491H356.834V95.769H333.96V131.738H344.911V144.235H356.834V471.315H360.416V139.521H348.485V131.707H360.416V111.396H344.911V127.039H337.534V100.483H360.416V53.0655H350.467V38.831H362V0H332.352ZM265.007 4.6836H273.356V15.6273H265.014L265.007 4.6836ZM348.477 116.08H356.827V127.039H348.477V116.08ZM346.893 34.025H335.934V19.6757H346.893V34.025ZM332.352 34.025H321.401V19.6757H332.352V34.025ZM306.868 34.025V19.6757H317.82V34.025H306.868ZM321.409 53.0655V38.7086H332.36V53.0655H321.409ZM346.893 72.0984H335.934V57.7491H346.893V72.0984ZM346.893 53.0655H335.934V38.831H346.893V53.0655ZM358.418 34.1398H350.467V15.0074H335.926V4.6836H358.411L358.418 34.1398Z" fill="#B88E5E"/>
</svg>
