<svg width="104" height="182" viewBox="0 0 260 472" fill="none" xmlns="http://www.w3.org/2000/svg">
<path d="M230.352 0V14.9845H219.439V0H183.272V29.9689H162.999V20.3109H174.922V0H159.417V15.6273H153.456V0H0V4.6836H149.874V20.3109H159.417V34.6602H186.846V4.6836H215.866V14.9845H201.287V38.7086H215.827V57.7491H230.368V76.7896H248.475V57.7491H254.834V95.769H231.96V131.738H242.911V144.235H254.834V471.315H258.416V139.521H246.485V131.707H258.416V111.396H242.911V127.039H235.534V100.483H258.416V53.0655H248.467V38.831H260V0H230.352ZM163.007 4.6836H171.356V15.6273H163.014L163.007 4.6836ZM246.477 116.08H254.827V127.039H246.477V116.08ZM244.893 34.025H233.934V19.6757H244.893V34.025ZM230.352 34.025H219.401V19.6757H230.352V34.025ZM204.868 34.025V19.6757H215.82V34.025H204.868ZM219.409 53.0655V38.7086H230.36V53.0655H219.409ZM244.893 72.0984H233.934V57.7491H244.893V72.0984ZM244.893 53.0655H233.934V38.831H244.893V53.0655ZM256.418 34.1398H248.467V15.0074H233.926V4.6836H256.411L256.418 34.1398Z" fill="#B88E5E"/>
</svg>
