<svg width="200" height="182" viewBox="0 0 420 472" fill="none" xmlns="http://www.w3.org/2000/svg">
<path d="M390.352 0V14.9845H379.439V0H343.272V29.9689H322.999V20.3109H334.922V0H319.417V15.6273H313.456V0H0V4.6836H309.874V20.3109H319.417V34.6602H346.846V4.6836H375.866V14.9845H361.287V38.7086H375.827V57.7491H390.368V76.7896H408.475V57.7491H414.834V95.769H391.96V131.738H402.911V144.235H414.834V471.315H418.416V139.521H406.485V131.707H418.416V111.396H402.911V127.039H395.534V100.483H418.416V53.0655H408.467V38.831H420V0H390.352ZM323.007 4.6836H331.356V15.6273H323.014L323.007 4.6836ZM406.477 116.08H414.827V127.039H406.477V116.08ZM404.893 34.025H393.934V19.6757H404.893V34.025ZM390.352 34.025H379.401V19.6757H390.352V34.025ZM364.868 34.025V19.6757H375.82V34.025H364.868ZM379.409 53.0655V38.7086H390.36V53.0655H379.409ZM404.893 72.0984H393.934V57.7491H404.893V72.0984ZM404.893 53.0655H393.934V38.831H404.893V53.0655ZM416.418 34.1398H408.467V15.0074H393.926V4.6836H416.411L416.418 34.1398Z" fill="#B88E5E"/>
</svg>
