<svg
  width="161"
  height="182"
  viewBox="0 0 410 472"
  fill="none"
  xmlns="http://www.w3.org/2000/svg">
  <path
    d="M380.352 0V14.9845H369.439V0H333.272V29.9689H312.999V20.3109H324.922V0H309.417V15.6273H303.456V0H0V4.6836H299.874V20.3109H309.417V34.6602H336.846V4.6836H365.866V14.9845H351.287V38.7086H365.827V57.7491H380.368V76.7896H398.475V57.7491H404.834V95.769H381.96V131.738H392.911V144.235H404.834V471.315H408.416V139.521H396.485V131.707H408.416V111.396H392.911V127.039H385.534V100.483H408.416V53.0655H398.467V38.831H410V0H380.352ZM313.007 4.6836H321.356V15.6273H313.014L313.007 4.6836ZM396.477 116.08H404.827V127.039H396.477V116.08ZM394.893 34.025H383.934V19.6757H394.893V34.025ZM380.352 34.025H369.401V19.6757H380.352V34.025ZM354.868 34.025V19.6757H365.82V34.025H354.868ZM369.409 53.0655V38.7086H380.36V53.0655H369.409ZM394.893 72.0984H383.934V57.7491H394.893V72.0984ZM394.893 53.0655H383.934V38.831H394.893V53.0655ZM406.418 34.1398H398.467V15.0074H383.926V4.6836H406.411L406.418 34.1398Z"
    fill="#B88E5E"
  />
</svg>
